<?xml version="1.0" encoding="iso-8859-1"?>
<!-- Generator: Adobe Illustrator 19.0.0, SVG Export Plug-In . SVG Version: 6.00 Build 0)  -->
<svg xmlns="http://www.w3.org/2000/svg" xmlns:xlink="http://www.w3.org/1999/xlink" version="1.1" id="Capa_1" x="0px" y="0px" viewBox="0 0 512 512" style="enable-background:new 0 0 512 512;" xml:space="preserve">
<path style="fill:#AE8B70;" d="M305.02,217.883v-16.34c0-27.073-21.947-49.019-49.019-49.019s-49.019,21.947-49.019,49.019v16.34  c0,0,0,130.718-24.51,236.927v49.019H329.53V454.81C305.02,348.602,305.02,217.883,305.02,217.883z"/>
<path style="fill:#9B735A;" d="M206.9,226.053c-0.459,30.101-3.551,138.291-24.428,228.757v49.019h40.85V454.81  c8.914-69.531,11.991-149.515,13.053-196.49c0.201-8.88,7.45-15.927,16.333-15.927h52.768c-0.197-6.725-0.311-12.254-0.373-16.34  L206.9,226.053L206.9,226.053z"/>
<rect x="182.47" y="454.81" style="fill:#DC5F5A;" width="147.06" height="49.02"/>
<path style="fill:#FF6E64;" d="M223.321,479.32v24.51H329.53v-32.68h-98.039C226.979,471.15,223.321,474.808,223.321,479.32z"/>
<g>
	<path style="fill:#D5DCED;" d="M256.001,307.752c-4.516,0-8.17-3.658-8.17-8.17v-8.17c0-4.512,3.654-8.17,8.17-8.17   s8.17,3.658,8.17,8.17v8.17C264.171,304.094,260.517,307.752,256.001,307.752z"/>
	<path style="fill:#D5DCED;" d="M256.001,348.602c-4.516,0-8.17-3.658-8.17-8.17v-8.17c0-4.512,3.654-8.17,8.17-8.17   s8.17,3.658,8.17,8.17v8.17C264.171,344.944,260.517,348.602,256.001,348.602z"/>
</g>
<path style="fill:#FF6E64;" d="M206.981,201.544v16.34c0,0-0.002,2.932-0.082,8.17h98.202c-0.08-5.238-0.082-8.17-0.082-8.17v-16.34  c0-27.073-21.947-49.019-49.019-49.019S206.981,174.471,206.981,201.544z"/>
<path style="fill:#DC5F5A;" d="M206.981,201.544v16.34c0,0-0.002,2.932-0.082,8.17h29.993c0.044-5.238,0.045-8.17,0.045-8.17v-16.34  c0-25.297,10.648-46.107,24.315-48.73c-1.727-0.184-3.477-0.29-5.252-0.29C228.928,152.524,206.981,174.471,206.981,201.544z"/>
<path style="fill:#784B41;" d="M268.256,503.83v-20.425c0-6.77-5.489-12.255-12.255-12.255c-6.766,0-12.255,5.485-12.255,12.255  v20.425H268.256z"/>
<path style="fill:#AE8B70;" d="M354.04,512H157.962c-4.516,0-8.17-3.658-8.17-8.17c0-4.512,3.654-8.17,8.17-8.17H354.04  c4.516,0,8.17,3.658,8.17,8.17C362.21,508.342,358.555,512,354.04,512z"/>
<g>
	<path style="fill:#F5DCB4;" d="M65.359,60.163c-3.191,3.191-3.191,8.363,0,11.554l92.432,92.432c3.19,3.19,8.363,3.191,11.554,0   l28.885-28.885L94.244,31.278L65.359,60.163z"/>
	<path style="fill:#F5DCB4;" d="M342.655,221.919l-28.885,28.885L417.756,354.79l28.885-28.885c3.191-3.191,3.19-8.364,0-11.554   l-92.432-92.432C351.018,218.728,345.846,218.728,342.655,221.919z"/>
</g>
<path style="fill:#EBC9A0;" d="M429.311,366.344c-3.193,3.193-8.364,3.19-11.554,0L82.691,31.279c-3.19-3.19-3.193-8.361,0-11.554  s8.364-3.19,11.554,0L429.311,354.79C432.501,357.981,432.504,363.151,429.311,366.344z"/>
<g>
	<path style="fill:#F5DCB4;" d="M388.872,2.393c-3.191-3.191-8.363-3.191-11.554,0l-92.432,92.432c-3.19,3.19-3.191,8.363,0,11.554   l28.885,28.885L417.757,31.278L388.872,2.393z"/>
	<path style="fill:#F5DCB4;" d="M227.117,279.689l-28.885-28.885L94.246,354.79l28.885,28.885c3.191,3.191,8.364,3.19,11.554,0   l92.432-92.432C230.307,288.052,230.307,282.879,227.117,279.689z"/>
</g>
<path style="fill:#EBC9A0;" d="M82.691,366.344c-3.193-3.193-3.19-8.364,0-11.554L417.757,19.725c3.19-3.19,8.361-3.193,11.554,0  s3.19,8.364,0,11.554L94.245,366.344C91.055,369.535,85.884,369.538,82.691,366.344z"/>
<circle style="fill:#AE8B70;" cx="256" cy="193.37" r="16.34"/>
<g>
</g>
<g>
</g>
<g>
</g>
<g>
</g>
<g>
</g>
<g>
</g>
<g>
</g>
<g>
</g>
<g>
</g>
<g>
</g>
<g>
</g>
<g>
</g>
<g>
</g>
<g>
</g>
<g>
</g>
</svg>
