<?xml version="1.0" encoding="iso-8859-1"?>
<!-- Generator: Adobe Illustrator 19.0.0, SVG Export Plug-In . SVG Version: 6.00 Build 0)  -->
<svg xmlns="http://www.w3.org/2000/svg" xmlns:xlink="http://www.w3.org/1999/xlink" version="1.1" id="Capa_1" x="0px" y="0px" viewBox="0 0 512 512" style="enable-background:new 0 0 512 512;" xml:space="preserve">
<path style="fill:#E4EAF8;" d="M174.73,73.143L174.73,73.143c-35.907,0-65.016,29.109-65.016,65.016v16.254h130.032v-16.254  C239.746,102.251,210.637,73.143,174.73,73.143z"/>
<rect x="109.71" y="154.41" style="fill:#EBC9A0;" width="130.03" height="349.46"/>
<path style="fill:#E1B18C;" d="M239.746,154.413H109.714v349.46h56.889V178.794c0-4.488,3.639-8.127,8.127-8.127h65.016V154.413z"/>
<path style="fill:#E4EAF8;" d="M321.016,0L321.016,0c44.884,0,81.27,36.386,81.27,81.27v16.254h-162.54V81.27  C239.746,36.386,276.132,0,321.016,0z"/>
<rect x="239.75" y="97.52" style="fill:#EBC9A0;" width="162.54" height="406.35"/>
<path style="fill:#E1B18C;" d="M402.286,97.524h-162.54v406.349h73.143V130.032c0-4.488,3.639-8.127,8.127-8.127h81.27V97.524z"/>
<path style="fill:#AE8B70;" d="M426.667,512H85.333c-4.492,0-8.127-3.639-8.127-8.127s3.635-8.127,8.127-8.127h341.333  c4.492,0,8.127,3.639,8.127,8.127S431.159,512,426.667,512z"/>
<g>
	<rect x="246.5" y="446.98" style="fill:#959CB5;" width="42.01" height="16.254"/>
	<rect x="246.5" y="414.48" style="fill:#959CB5;" width="42.01" height="16.254"/>
	<rect x="246.5" y="381.97" style="fill:#959CB5;" width="42.01" height="16.254"/>
	<rect x="246.5" y="349.46" style="fill:#959CB5;" width="42.01" height="16.254"/>
	<rect x="246.5" y="316.95" style="fill:#959CB5;" width="42.01" height="16.254"/>
	<rect x="246.5" y="284.44" style="fill:#959CB5;" width="42.01" height="16.254"/>
	<rect x="246.5" y="251.94" style="fill:#959CB5;" width="42.01" height="16.254"/>
	<rect x="246.5" y="219.43" style="fill:#959CB5;" width="42.01" height="16.254"/>
	<rect x="246.5" y="186.92" style="fill:#959CB5;" width="42.01" height="16.254"/>
	<rect x="246.5" y="154.41" style="fill:#959CB5;" width="42.01" height="16.254"/>
	<rect x="246.5" y="121.91" style="fill:#959CB5;" width="42.01" height="16.254"/>
</g>
<g>
	<path style="fill:#AFB9D2;" d="M288.508,479.492L288.508,479.492c-4.488,0-8.127-3.639-8.127-8.127V97.524h16.254v373.841   C296.635,475.853,292.996,479.492,288.508,479.492z"/>
	<path style="fill:#AFB9D2;" d="M247.873,479.492L247.873,479.492c-4.488,0-8.127-3.639-8.127-8.127V97.524H256v373.841   C256,475.853,252.361,479.492,247.873,479.492z"/>
</g>
<g>
	<path style="fill:#D5DCED;" d="M346.413,4.104C338.416,1.473,329.893,0,321.016,0c-44.884,0-81.27,36.385-81.27,81.27v16.254   h73.143V81.27C312.889,45.263,326.952,14.775,346.413,4.104z"/>
	<path style="fill:#D5DCED;" d="M194.735,76.312c-6.306-2.039-13.02-3.169-20.005-3.169c-35.907,0-65.016,29.109-65.016,65.016   v16.254h56.889v-16.254C166.603,109.236,178.415,84.753,194.735,76.312z"/>
</g>
<g>
</g>
<g>
</g>
<g>
</g>
<g>
</g>
<g>
</g>
<g>
</g>
<g>
</g>
<g>
</g>
<g>
</g>
<g>
</g>
<g>
</g>
<g>
</g>
<g>
</g>
<g>
</g>
<g>
</g>
</svg>
