<?xml version="1.0" encoding="iso-8859-1"?>
<!-- Generator: Adobe Illustrator 19.0.0, SVG Export Plug-In . SVG Version: 6.00 Build 0)  -->
<svg xmlns="http://www.w3.org/2000/svg" xmlns:xlink="http://www.w3.org/1999/xlink" version="1.1" id="Capa_1" x="0px" y="0px" viewBox="0 0 512 512" style="enable-background:new 0 0 512 512;" xml:space="preserve">
<polygon style="fill:#FF6E64;" points="482.154,203.398 415.513,96.741 412.281,91.569 406.494,89.639 261.364,41.264 256,39.476   250.636,41.264 105.506,89.639 99.719,91.569 96.487,96.741 29.846,203.442 29.846,482.625 482.154,482.625 "/>
<g>
	<rect x="369.08" y="447.83" style="fill:#DC5F5A;" width="113.08" height="34.793"/>
	<rect x="29.846" y="447.83" style="fill:#DC5F5A;" width="113.08" height="34.793"/>
	<rect x="151.62" y="317.36" style="fill:#DC5F5A;" width="208.76" height="147.87"/>
</g>
<g>
	<polygon style="fill:#F5DCB4;" points="355.35,472.326 146.593,324.456 156.65,310.262 365.407,458.132  "/>
	<polygon style="fill:#F5DCB4;" points="156.65,472.326 365.407,324.456 355.35,310.262 146.593,458.132  "/>
</g>
<polygon style="fill:#DC5F5A;" points="412.281,91.569 406.494,89.639 261.364,41.264 256,39.476 250.636,41.264 105.506,89.639   99.719,91.569 96.487,96.741 29.846,203.442 29.846,268.282 122.306,120.256 256,75.693 389.694,120.256 482.154,268.368   482.154,203.398 415.513,96.741 "/>
<path id="SVGCleanerId_0" style="fill:#FAEBC8;" d="M424.005,76.68L256,20.677L87.995,76.68L0.926,215.993  c-1.782,2.851-0.915,6.608,1.936,8.39l19.175,11.986c2.852,1.783,6.608,0.916,8.391-1.936L110.87,105.73L256,57.355l145.13,48.375  l80.442,128.703c1.782,2.852,5.539,3.718,8.391,1.936l19.175-11.986c2.851-1.782,3.718-5.539,1.936-8.39L424.005,76.68z"/>
<g>
	<path style="fill:#FAEBC8;" d="M369.077,308.661H142.923c-4.804,0-8.698-3.894-8.698-8.698v-17.396   c0-4.804,3.894-8.698,8.698-8.698h226.154c4.804,0,8.698,3.894,8.698,8.698v17.396   C377.775,304.766,373.881,308.661,369.077,308.661z"/>
	<path style="fill:#FAEBC8;" d="M316.887,239.075H195.113c-4.808,0-8.698-3.895-8.698-8.698V125.998c0-4.804,3.89-8.698,8.698-8.698   h121.775c4.808,0,8.698,3.895,8.698,8.698v104.379C325.586,235.18,321.695,239.075,316.887,239.075z"/>
</g>
<rect x="203.81" y="134.7" style="fill:#DC5F5A;" width="104.38" height="86.982"/>
<path style="fill:#AE8B70;" d="M499.55,491.323H12.45c-4.808,0-8.698-3.895-8.698-8.698s3.89-8.698,8.698-8.698h487.1  c4.808,0,8.698,3.895,8.698,8.698S504.358,491.323,499.55,491.323z"/>
<g>
	<path id="SVGCleanerId_0_1_" style="fill:#FAEBC8;" d="M424.005,76.68L256,20.677L87.995,76.68L0.926,215.993   c-1.782,2.851-0.915,6.608,1.936,8.39l19.175,11.986c2.852,1.783,6.608,0.916,8.391-1.936L110.87,105.73L256,57.355l145.13,48.375   l80.442,128.703c1.782,2.852,5.539,3.718,8.391,1.936l19.175-11.986c2.851-1.782,3.718-5.539,1.936-8.39L424.005,76.68z"/>
</g>
<g>
	<path style="fill:#F5DCB4;" d="M412.281,91.569l-5.787-1.929l-145.13-48.375L256,39.476l-5.364,1.788l-145.13,48.375l-5.787,1.929   l-3.233,5.172L12.863,230.635l9.174,5.735c2.852,1.783,6.608,0.916,8.391-1.936l80.442-128.703L256,57.355l145.13,48.375   l80.442,128.703c1.782,2.852,5.539,3.718,8.391,1.936l9.199-5.75L415.513,96.741L412.281,91.569z"/>
	<path style="fill:#F5DCB4;" d="M134.225,291.264v8.698c0,4.804,3.894,8.698,8.698,8.698h226.154c4.804,0,8.698-3.895,8.698-8.698   v-8.698H134.225z"/>
</g>
<path style="fill:#FAEBC8;" d="M142.923,308.661v165.266h226.154V308.661H142.923z M351.68,456.53H160.32V326.057h191.36V456.53z"/>
<rect x="247.3" y="134.7" style="fill:#F5DCB4;" width="17.396" height="86.982"/>
<g>
</g>
<g>
</g>
<g>
</g>
<g>
</g>
<g>
</g>
<g>
</g>
<g>
</g>
<g>
</g>
<g>
</g>
<g>
</g>
<g>
</g>
<g>
</g>
<g>
</g>
<g>
</g>
<g>
</g>
</svg>
