<?xml version="1.0" encoding="iso-8859-1"?>
<!-- Generator: Adobe Illustrator 19.0.0, SVG Export Plug-In . SVG Version: 6.00 Build 0)  -->
<svg xmlns="http://www.w3.org/2000/svg" xmlns:xlink="http://www.w3.org/1999/xlink" version="1.1" id="Capa_1" x="0px" y="0px" viewBox="0 0 512 512" style="enable-background:new 0 0 512 512;" xml:space="preserve">
<path style="fill:#FFDC64;" d="M24.774,478.968h462.452v-8.258l-10.983-36.61c-8.395-27.983-32.406-48.453-61.365-52.314  l-50.964-6.795c-16.503-2.2-31.955-9.337-44.329-20.475l-36.247-32.622C265.936,306.233,256,283.923,256,260.512V8.258  C256,3.697,252.303,0,247.742,0H33.032c-4.561,0-8.258,3.697-8.258,8.258L24.774,478.968z"/>
<g>
	<path style="fill:#FFC850;" d="M482.271,454.194h-175.47c-10.916,0-21.814-0.902-32.582-2.697l-106.847-17.808   c-17.05-2.842-34.305-4.27-51.589-4.27h-8.428c-13.682,0-24.774-11.092-24.774-24.774V8.258C82.581,3.697,86.278,0,90.839,0H33.032   c-4.561,0-8.258,3.697-8.258,8.258v470.71h462.452v-8.258L482.271,454.194z"/>
	<path style="fill:#FFC850;" d="M107.355,396.387v57.806h16.516v-57.806c0-40.984-33.339-74.323-74.323-74.323H24.774v16.516h24.774   C81.419,338.581,107.355,364.516,107.355,396.387z"/>
</g>
<rect x="24.774" y="24.774" style="fill:#E1A546;" width="57.806" height="24.774"/>
<rect x="82.58" y="24.774" style="fill:#FFC850;" width="173.42" height="24.774"/>
<g>
	<path style="fill:#E1A546;" d="M123.871,429.587c-2.696-0.07-5.391-0.167-8.088-0.167h-8.428v24.774h16.516V429.587z"/>
	<path style="fill:#E1A546;" d="M82.581,349.018v-19.112c-9.966-4.972-21.158-7.841-33.032-7.841H24.774v16.516h24.774   C61.829,338.581,73.207,342.461,82.581,349.018z"/>
</g>
<path style="fill:#EBC9A0;" d="M487.226,470.71H306.802c-11.827,0-23.633-0.977-35.298-2.921L164.657,449.98  c-16.152-2.692-32.499-4.045-48.874-4.045H24.774c-4.561,0-8.258,3.697-8.258,8.258v49.548c0,4.56,3.697,8.258,8.258,8.258h108.772  c4.381,0,8.581-1.74,11.679-4.838l13.464-13.464c4.027-4.027,9.844-5.695,15.392-4.414L248.69,506.5  c15.833,3.654,32.03,5.498,48.279,5.498h190.257c4.56,0,8.258-3.698,8.258-8.258v-24.774  C495.484,474.407,491.786,470.71,487.226,470.71z"/>
<path style="fill:#DCB991;" d="M487.226,487.226H306.802c-11.827,0-23.633-0.977-35.298-2.921l-106.847-17.808  c-16.152-2.692-32.499-4.045-48.874-4.045H24.774c-4.561,0-8.258,3.697-8.258,8.258v33.032c0,4.56,3.697,8.258,8.258,8.258h108.772  c4.381,0,8.581-1.74,11.679-4.838l13.464-13.464c4.027-4.027,9.844-5.695,15.392-4.414l74.609,17.217  c15.833,3.654,32.03,5.498,48.279,5.498h190.257c4.56,0,8.258-3.698,8.258-8.258v-8.258  C495.484,490.923,491.786,487.226,487.226,487.226z"/>
<g>
</g>
<g>
</g>
<g>
</g>
<g>
</g>
<g>
</g>
<g>
</g>
<g>
</g>
<g>
</g>
<g>
</g>
<g>
</g>
<g>
</g>
<g>
</g>
<g>
</g>
<g>
</g>
<g>
</g>
</svg>
