<?xml version="1.0" encoding="iso-8859-1"?>
<!-- Generator: Adobe Illustrator 19.0.0, SVG Export Plug-In . SVG Version: 6.00 Build 0)  -->
<svg xmlns="http://www.w3.org/2000/svg" xmlns:xlink="http://www.w3.org/1999/xlink" version="1.1" id="Capa_1" x="0px" y="0px" viewBox="0 0 511.999 511.999" style="enable-background:new 0 0 511.999 511.999;" xml:space="preserve">
<path style="fill:#AE8B70;" d="M439.832,486.23c6.285,0.736,10.974-5.6,8.49-11.42c-6.776-15.875-16.993-45.304-16.993-78.423  V289.032c0-85.812-52.528-158.333-124.653-181.883l-101.735,0.129C133.02,130.962,80.68,203.376,80.68,289.032v107.355  c0,33.118-10.217,62.547-16.993,78.423c-2.484,5.82,2.206,12.156,8.49,11.42c13.183-1.544,32.716-5.481,46.617-15.52l-5.071,21.976  c-1.28,5.546,3.261,10.71,8.917,10.074c14.231-1.601,39.06-5.655,59.043-15.534h148.645c19.913,9.733,44.752,13.836,59.006,15.485  c5.665,0.655,10.225-4.515,8.943-10.071l-5.061-21.93C407.116,480.749,426.65,484.686,439.832,486.23z"/>
<path style="fill:#9B735A;" d="M322.009,113.103c-5.011-2.209-10.102-4.246-15.332-5.954l-101.735,0.129  C133.02,130.962,80.68,203.376,80.68,289.032v107.355c0,33.135-10.227,62.577-17.003,78.447c-2.481,5.812,2.201,12.132,8.478,11.398  c13.183-1.542,32.731-5.478,46.64-15.523l-5.072,21.975c-1.28,5.546,3.261,10.71,8.917,10.074  c8.657-0.974,21.245-2.879,34.269-6.427v-0.01c8.381-2.282,16.938-5.222,24.774-9.096h33.032V305.548H187.65  c-3.065,5.267-8.893,8.728-15.545,8.206c-8.772-0.688-15.196-8.694-15.196-17.492v-23.746c0-33.399,10.002-64.389,27.081-90.325  c3.78-5.74,12.776-4.344,14.675,2.261c11.995,41.719,34.742,63.29,57.34,63.29c33.135,0,66.682-46.233,66.056-134.559  C322.042,113.155,322.027,113.132,322.009,113.103z"/>
<ellipse style="fill:#FF6E64;" cx="256" cy="115.61" rx="49.548" ry="115.61"/>
<g>
	<path style="fill:#64372F;" d="M132.134,284.903c-6.839,0-12.387-5.544-12.387-12.387v-8.258c0-6.843,5.548-12.387,12.387-12.387   c6.839,0,12.387,5.544,12.387,12.387v8.258C144.521,279.359,138.973,284.903,132.134,284.903z"/>
	<path style="fill:#64372F;" d="M379.876,284.903c-6.839,0-12.387-5.544-12.387-12.387v-8.258c0-6.843,5.548-12.387,12.387-12.387   s12.387,5.544,12.387,12.387v8.258C392.263,279.359,386.715,284.903,379.876,284.903z"/>
</g>
<path style="fill:#FF6E64;" d="M305.551,371.613c0,41.29,33.003,66.065,33.003,97.376c0,22.497-17.401,42.259-39.887,42.988  c-14.398,0.467-27.211-6.439-34.95-17.23c-1.901-2.651-4.807-3.977-7.714-3.978c-2.906,0.001-5.811,1.327-7.712,3.978  c-7.739,10.791-20.552,17.698-34.95,17.23c-22.486-0.73-39.887-20.491-39.887-42.988c0-31.312,33.003-56.086,33.003-97.376"/>
<path style="fill:#DC5F5A;" d="M256.005,421.161c20.591,0,39.541-7.916,54.793-21.088c-3.141-8.684-5.247-18.044-5.247-28.46  h-99.095c0,42.909-35.64,67.981-32.846,101.09c1.791,21.225,19.189,38.999,40.488,39.292c6.089,0.084,11.851-1.21,17.081-3.492  c-9.709-6.672-16.403-22.242-16.403-39.515c0-13.399,3.922-25.612,8.412-38.429c2.706-7.725,10.643-12.266,18.685-10.741  C246.471,420.689,251.186,421.161,256.005,421.161z"/>
<path style="fill:#E1B18C;" d="M181.951,311.732c-0.125,2.057-0.268,4.109-0.268,6.203c0,47.888,33.275,86.71,74.323,86.71  s74.323-38.822,74.323-86.71c0-2.094-0.143-4.146-0.268-6.203c-21.125-14.324-46.609-22.7-74.054-22.7  C228.559,289.032,203.075,297.409,181.951,311.732z"/>
<path style="fill:#F5DCB4;" d="M256.011,421.029c3.12-0.002,6.24-1.71,7.61-5.124c21.026-52.392,54.096-84.622,68.214-96.688  c3.414-2.918,3.012-8.289-0.792-10.676c-19.206-12.05-45.72-19.513-75.038-19.508c-29.316,0-55.83,7.464-75.036,19.514  c-3.805,2.387-4.207,7.758-0.792,10.676c14.118,12.067,47.188,44.296,68.214,96.688c1.37,3.415,4.49,5.123,7.61,5.124"/>
<path style="fill:#EBC9A0;" d="M226.667,291.67c-17.497,3.159-33.169,9.016-45.698,16.875c-3.805,2.387-4.207,7.758-0.792,10.676  c14.118,12.067,47.188,44.296,68.214,96.689c1.37,3.414,4.49,5.122,7.61,5.124l0.011-0.006c3.081-0.001,6.146-1.681,7.542-5.01  C250.259,359.066,236.537,317.706,226.667,291.67z"/>
<path style="fill:#DC5F5A;" d="M256.005,82.581c-5.856,0-11.418,2.224-16.464,6.181c0.276-35.871,7.531-67.719,18.756-88.491  C257.532,0.189,256.779,0,256.005,0c-27.365,0-49.548,51.762-49.548,115.613c0,35.199,6.764,66.667,17.399,87.872  c6.521,14.564,16.03,24.562,26.853,27.062c0.117,0.029,0.233,0.069,0.35,0.096c1.625,0.35,3.27,0.583,4.947,0.583  c22.804,0,41.29-33.276,41.29-74.323C297.295,115.856,278.809,82.581,256.005,82.581z"/>
<ellipse style="fill:#FF6E64;" cx="256" cy="173.42" rx="16.516" ry="24.774"/>
<g>
</g>
<g>
</g>
<g>
</g>
<g>
</g>
<g>
</g>
<g>
</g>
<g>
</g>
<g>
</g>
<g>
</g>
<g>
</g>
<g>
</g>
<g>
</g>
<g>
</g>
<g>
</g>
<g>
</g>
</svg>
