<?xml version="1.0" encoding="iso-8859-1"?>
<!-- Generator: Adobe Illustrator 19.0.0, SVG Export Plug-In . SVG Version: 6.00 Build 0)  -->
<svg xmlns="http://www.w3.org/2000/svg" xmlns:xlink="http://www.w3.org/1999/xlink" version="1.1" id="Capa_1" x="0px" y="0px" viewBox="0 0 512 512" style="enable-background:new 0 0 512 512;" xml:space="preserve">
<path style="fill:#FFDC64;" d="M356.428,148.68c-14.287-0.748-26.106,10.615-26.106,24.739V50.95  c0-13.415-10.045-25.44-23.442-26.141c-14.287-0.748-26.106,10.615-26.106,24.739V26.176c0-13.415-10.045-25.44-23.442-26.141  c-14.287-0.748-26.106,10.615-26.106,24.739v24.774c0-14.124-11.819-25.487-26.106-24.739  c-13.397,0.702-23.442,12.726-23.442,26.141v64.663c0-14.124-11.819-25.487-26.106-24.739  c-13.397,0.702-23.442,12.726-23.442,26.141v129.07c0,17.555,2.153,35.044,6.411,52.075l20.704,82.816  c3.93,15.721,5.917,31.864,5.917,48.069v16.892h181.677v-11.488c0-19.757,2.954-39.403,8.764-58.286l15.504-50.387  c5.81-18.883,8.764-38.529,8.764-58.286v-92.667C379.87,161.406,369.825,149.382,356.428,148.68z"/>
<path style="fill:#F0B74B;" d="M346.838,445.936H165.16c-9.121,0-16.516,7.394-16.516,16.516v33.032  c0,9.121,7.395,16.516,16.516,16.516h181.677c9.121,0,16.516-7.395,16.516-16.516v-33.032  C363.354,453.33,355.959,445.936,346.838,445.936z"/>
<g>
	<path style="fill:#FFC850;" d="M346.838,150.107c-9.612,3.406-16.516,12.533-16.516,23.312v66.064c0,4.56,3.697,8.258,8.258,8.258   s8.258-3.698,8.258-8.258V150.107z"/>
	<path style="fill:#FFC850;" d="M289.031,214.71c4.561,0,8.258-3.698,8.258-8.258V26.236c-9.612,3.406-16.516,12.533-16.516,23.312   v156.903C280.773,211.012,284.47,214.71,289.031,214.71z"/>
	<path style="fill:#FFC850;" d="M239.483,214.71c4.56,0,8.258-3.698,8.258-8.258V1.462c-9.612,3.406-16.516,12.533-16.516,23.312   v24.774v156.903C231.225,211.012,234.922,214.71,239.483,214.71z"/>
	<path style="fill:#FFC850;" d="M189.935,222.968c4.561,0,8.258-3.698,8.258-8.258V26.382c-9.759,3.688-16.516,13.608-16.516,24.568   v64.663v99.097C181.676,219.27,185.374,222.968,189.935,222.968z"/>
	<path style="fill:#FFC850;" d="M202.617,412.903c-12.163,0-22.217-8.883-24.445-20.84c-0.693-3.717-1.495-7.414-2.413-11.088   l-20.704-82.816c-4.258-17.031-6.411-34.52-6.411-52.074V92.304c-9.941,3.636-16.516,13.797-16.516,24.711v129.069   c0,17.555,2.153,35.044,6.411,52.075l20.704,82.816c3.93,15.72,5.917,31.863,5.917,48.067v16.894h9.293h7.223h165.161v-11.488   c0-7.212,0.529-14.393,1.312-21.544L202.617,412.903L202.617,412.903z"/>
</g>
<path style="fill:#E1A546;" d="M206.451,495.484v-33.032c0-9.122,7.395-16.516,16.516-16.516h-57.806  c-9.121,0-16.516,7.394-16.516,16.516v33.032c0,9.121,7.395,16.516,16.516,16.516h57.806  C213.845,512,206.451,504.605,206.451,495.484z"/>
<g>
</g>
<g>
</g>
<g>
</g>
<g>
</g>
<g>
</g>
<g>
</g>
<g>
</g>
<g>
</g>
<g>
</g>
<g>
</g>
<g>
</g>
<g>
</g>
<g>
</g>
<g>
</g>
<g>
</g>
</svg>
