<?xml version="1.0" encoding="iso-8859-1"?>
<!-- Generator: Adobe Illustrator 19.0.0, SVG Export Plug-In . SVG Version: 6.00 Build 0)  -->
<svg xmlns="http://www.w3.org/2000/svg" xmlns:xlink="http://www.w3.org/1999/xlink" version="1.1" id="Capa_1" x="0px" y="0px" viewBox="0 0 512 512" style="enable-background:new 0 0 512 512;" xml:space="preserve">
<path style="fill:#7F8499;" d="M472.3,123.724C352.543,27.926,138.75,2.912,70.736,0.246c-0.849-0.167-1.714-0.214-2.61-0.095  C65.603,0.064,63.302,0.016,61.255,0c-6.775-0.024-12.733,2.451-17.39,7.061c-4.649,4.609-7.212,10.758-7.212,17.311  c0,17.327,3.419,34.202,10.171,50.148l73.417,173.531c3.84,9.044,5.784,18.628,5.784,28.481v32.313h16.248v-32.313  c0-12.043-2.38-23.761-7.069-34.82L61.787,68.189c-5.895-13.931-8.886-28.68-8.886-43.817c0-2.19,0.849-4.237,2.396-5.768  c1.539-1.523,3.57-2.356,5.744-2.356c0.896-0.159,1.849,0.016,2.856,0.04l32.067,70.537c5.165,11.353,16.565,18.826,29.037,19.041  c42.468,0.738,192.539,5.244,340.77,32.194c3.697,0.714,7.299-1.246,8.846-4.625C476.156,130.055,475.204,126.048,472.3,123.724z"/>
<path style="fill:#959CB5;" d="M474.617,133.435c1.539-3.38,0.587-7.386-2.317-9.711c-16.034-12.827-33.791-24.346-52.621-34.75  C287.818,73.566,167.555,66.571,85.308,63.384l10.657,23.441c5.165,11.353,16.565,18.826,29.037,19.041  c42.468,0.738,192.539,5.244,340.77,32.194C469.468,138.774,473.07,136.814,474.617,133.435z"/>
<path style="fill:#EBC9A0;" d="M150.384,300.777h-32.496c-4.487,0-8.124,3.637-8.124,8.124v178.727  c0,13.46,10.912,24.372,24.372,24.372l0,0c13.46,0,24.372-10.912,24.372-24.372V308.901  C158.508,304.414,154.87,300.777,150.384,300.777z"/>
<path style="fill:#DCB991;" d="M142.26,349.471c-4.487,0-8.124,3.637-8.124,8.124v130.033c0,8.998,4.932,16.77,12.186,20.992  c-4.877,2.838-10.728,4.194-17.068,2.87c-11.639-2.431-19.49-13.479-19.49-25.369V333.224h48.744v16.248L142.26,349.471  L142.26,349.471z"/>
<path style="fill:#AFB9D2;" d="M150.384,300.727h-32.496c-4.487,0-8.124,3.637-8.124,8.124v24.372h48.744v-24.372  C158.508,304.364,154.87,300.727,150.384,300.727z"/>
<path style="fill:#959CB5;" d="M134.136,308.851v24.372h-24.372v-24.372c0-4.486,3.637-8.124,8.124-8.124h24.372  C137.773,300.727,134.136,304.365,134.136,308.851z"/>
<g>
</g>
<g>
</g>
<g>
</g>
<g>
</g>
<g>
</g>
<g>
</g>
<g>
</g>
<g>
</g>
<g>
</g>
<g>
</g>
<g>
</g>
<g>
</g>
<g>
</g>
<g>
</g>
<g>
</g>
</svg>
