<?xml version="1.0" encoding="iso-8859-1"?>
<!-- Generator: Adobe Illustrator 19.0.0, SVG Export Plug-In . SVG Version: 6.00 Build 0)  -->
<svg xmlns="http://www.w3.org/2000/svg" xmlns:xlink="http://www.w3.org/1999/xlink" version="1.1" id="Capa_1" x="0px" y="0px" viewBox="0 0 512 512" style="enable-background:new 0 0 512 512;" xml:space="preserve">
<path style="fill:#D5DCED;" d="M355.15,289.032h-198.3c-4.581,0-8.299,3.679-8.262,8.26C148.847,329.52,156.754,448.17,255.807,512  h0.129c99.291-63.83,107.218-182.479,107.477-214.707C363.449,292.711,359.73,289.032,355.15,289.032z"/>
<g>
	<path style="fill:#C7CFE2;" d="M190.693,305.599h130.613c14.218,0,25.533,11.889,24.747,26.085   c-1.401,25.288-4.97,61.453-13.764,95.158c27.674-53.925,30.959-109.112,31.123-129.549c0.037-4.582-3.681-8.261-8.262-8.261   h-198.3c-4.578,0-8.299,3.683-8.262,8.261c0.164,20.457,3.449,75.73,31.13,129.704c-8.802-33.762-12.372-69.992-13.772-95.314   C165.161,317.487,176.475,305.599,190.693,305.599z"/>
	<path style="fill:#C7CFE2;" d="M239.548,206.553v140.285c0,9.121,7.395,16.516,16.516,16.516c9.121,0,16.516-7.395,16.516-16.516   V206.503L239.548,206.553z"/>
</g>
<path style="fill:#AFB9D2;" d="M256.065,346.839V206.553h-16.516v140.285c0,9.121,7.395,16.516,16.516,16.516  c3.024,0,5.821-0.872,8.258-2.291C259.407,358.203,256.065,352.936,256.065,346.839z"/>
<path style="fill:#EBC9A0;" d="M272.581,214.71h-33.032c-4.561,0-8.258-3.697-8.258-8.258V24.774C231.29,11.092,242.382,0,256.064,0  l0,0c13.682,0,24.774,11.092,24.774,24.774v181.677C280.839,211.013,277.141,214.71,272.581,214.71z"/>
<path style="fill:#DCB991;" d="M264.323,165.212c-4.561,0-8.258-3.697-8.258-8.258V24.774c0-9.147,5.013-17.046,12.387-21.338  c-4.958-2.885-10.905-4.263-17.35-2.917C239.27,2.99,231.29,14.22,231.29,26.307v155.421h49.548v-16.516L264.323,165.212  L264.323,165.212z"/>
<path style="fill:#AFB9D2;" d="M272.581,214.761h-33.032c-4.561,0-8.258-3.697-8.258-8.258v-24.774h49.548v24.774  C280.839,211.063,277.141,214.761,272.581,214.761z"/>
<path style="fill:#959CB5;" d="M256.065,206.503v-24.774H231.29v24.774c0,4.56,3.697,8.258,8.258,8.258h24.774  C259.762,214.761,256.065,211.063,256.065,206.503z"/>
<g>
</g>
<g>
</g>
<g>
</g>
<g>
</g>
<g>
</g>
<g>
</g>
<g>
</g>
<g>
</g>
<g>
</g>
<g>
</g>
<g>
</g>
<g>
</g>
<g>
</g>
<g>
</g>
<g>
</g>
</svg>
