<?xml version="1.0" encoding="iso-8859-1"?>
<!-- Generator: Adobe Illustrator 19.0.0, SVG Export Plug-In . SVG Version: 6.00 Build 0)  -->
<svg xmlns="http://www.w3.org/2000/svg" xmlns:xlink="http://www.w3.org/1999/xlink" version="1.1" id="Capa_1" x="0px" y="0px" viewBox="0 0 512 512" style="enable-background:new 0 0 512 512;" xml:space="preserve">
<path style="fill:#AFB9D2;" d="M322.065,511.949h-132.13c-4.561,0-8.258-3.697-8.258-8.258v-66.065  c0-41.047,33.275-74.323,74.323-74.323l0,0c41.047,0,74.323,33.275,74.323,74.323v66.065  C330.323,508.252,326.625,511.949,322.065,511.949z"/>
<path style="fill:#C7CFE2;" d="M256,388.129L256,388.129c-31.926,0-57.807,25.881-57.807,57.806V512h115.613v-66.065  C313.806,414.01,287.926,388.129,256,388.129z"/>
<path style="fill:#959CB5;" d="M256,429.419L256,429.419c-9.122,0-16.516-7.395-16.516-16.516V272.516h33.032v140.387  C272.516,422.025,265.122,429.419,256,429.419z"/>
<path style="fill:#9B735A;" d="M264.258,0h-16.516c-4.561,0-8.258,3.697-8.258,8.258v264.258h33.032V8.258  C272.516,3.697,268.819,0,264.258,0z"/>
<path style="fill:#8C5F50;" d="M264.258,256c-4.561,0-8.258-3.697-8.258-8.258V8.258C256,3.697,259.697,0,264.258,0h-16.516  c-4.561,0-8.258,3.697-8.258,8.258v264.258h33.032V256H264.258z"/>
<g>
	<rect x="239.48" y="289.03" style="fill:#7F8499;" width="33.03" height="16.516"/>
	<path style="fill:#7F8499;" d="M239.484,272.516v132.129c0,4.561,3.697,8.258,8.258,8.258l0,0c4.561,0,8.258-3.697,8.258-8.258   V272.516H239.484z"/>
</g>
<rect x="239.48" y="289.03" style="fill:#707487;" width="16.516" height="16.516"/>
<g>
</g>
<g>
</g>
<g>
</g>
<g>
</g>
<g>
</g>
<g>
</g>
<g>
</g>
<g>
</g>
<g>
</g>
<g>
</g>
<g>
</g>
<g>
</g>
<g>
</g>
<g>
</g>
<g>
</g>
</svg>
