<?xml version="1.0" encoding="iso-8859-1"?>
<!-- Generator: Adobe Illustrator 19.0.0, SVG Export Plug-In . SVG Version: 6.00 Build 0)  -->
<svg xmlns="http://www.w3.org/2000/svg" xmlns:xlink="http://www.w3.org/1999/xlink" version="1.1" id="Capa_1" x="0px" y="0px" viewBox="0 0 512 512" style="enable-background:new 0 0 512 512;" xml:space="preserve">
<path style="fill:#7F8499;" d="M321.022,438.898H190.978c-8.978,0-16.255,7.278-16.255,16.255v16.255h162.555v-16.255  C337.277,446.176,330,438.898,321.022,438.898z"/>
<rect x="239.75" y="341.37" style="fill:#AFB9D2;" width="32.511" height="89.41"/>
<path style="fill:#959CB5;" d="M321.022,430.723h-40.639c-4.489,0-8.128-3.639-8.128-8.128v-8.08h-8.128  c-4.489,0-8.128-3.639-8.128-8.128v-65.022h-16.255v73.15v8.08c0,4.489-3.639,8.128-8.128,8.128h-40.639  c-13.466,0-24.383,10.917-24.383,24.383v48.766c0,4.492,3.635,8.128,8.128,8.128c4.492,0,8.128-3.635,8.128-8.128v-48.766  c0-4.489,3.639-8.128,8.128-8.128h130.044c4.489,0,8.128,3.639,8.128,8.128v48.766c0,4.492,3.635,8.128,8.128,8.128  c4.492,0,8.128-3.635,8.128-8.128v-48.766C345.405,441.639,334.488,430.723,321.022,430.723z"/>
<path style="fill:#EBC9A0;" d="M264.128,0h-16.255c-4.489,0-8.128,3.639-8.128,8.128v333.237h32.511V8.128  C272.255,3.639,268.617,0,264.128,0z"/>
<path style="fill:#DCB991;" d="M264.128,325.11c-4.489,0-8.128-3.639-8.128-8.128V8.128C256,3.639,259.639,0,264.128,0h-16.255  c-4.489,0-8.128,3.639-8.128,8.128v333.237h32.511V325.11H264.128z"/>
<rect x="239.75" y="357.62" style="fill:#7F8499;" width="32.511" height="16.255"/>
<rect x="239.75" y="357.62" style="fill:#707487;" width="16.255" height="16.255"/>
<g>
	<path style="fill:#959CB5;" d="M239.745,512c-4.492,0-8.128-3.635-8.128-8.128v-32.511c0-4.492,3.635-8.128,8.128-8.128   s8.128,3.635,8.128,8.128v32.511C247.872,508.365,244.237,512,239.745,512z"/>
	<path style="fill:#959CB5;" d="M207.234,512c-4.492,0-8.128-3.635-8.128-8.128v-32.511c0-4.492,3.635-8.128,8.128-8.128   c4.492,0,8.128,3.635,8.128,8.128v32.511C215.361,508.365,211.726,512,207.234,512z"/>
	<path style="fill:#959CB5;" d="M304.766,512c-4.492,0-8.128-3.635-8.128-8.128v-32.511c0-4.492,3.635-8.128,8.128-8.128   c4.492,0,8.128,3.635,8.128,8.128v32.511C312.894,508.365,309.259,512,304.766,512z"/>
	<path style="fill:#959CB5;" d="M272.255,512c-4.492,0-8.128-3.635-8.128-8.128v-32.511c0-4.492,3.635-8.128,8.128-8.128   c4.492,0,8.128,3.635,8.128,8.128v32.511C280.383,508.365,276.748,512,272.255,512z"/>
</g>
<g>
</g>
<g>
</g>
<g>
</g>
<g>
</g>
<g>
</g>
<g>
</g>
<g>
</g>
<g>
</g>
<g>
</g>
<g>
</g>
<g>
</g>
<g>
</g>
<g>
</g>
<g>
</g>
<g>
</g>
</svg>
