<?xml version="1.0" encoding="iso-8859-1"?>
<!-- Generator: Adobe Illustrator 19.0.0, SVG Export Plug-In . SVG Version: 6.00 Build 0)  -->
<svg xmlns="http://www.w3.org/2000/svg" xmlns:xlink="http://www.w3.org/1999/xlink" version="1.1" id="Capa_1" x="0px" y="0px" viewBox="0 0 512 512" style="enable-background:new 0 0 512 512;" xml:space="preserve">
<rect x="239.75" y="300.7" style="fill:#AFB9D2;" width="32.508" height="89.4"/>
<path style="fill:#9B735A;" d="M264.127,0h-16.254c-4.488,0-8.127,3.639-8.127,8.127v292.571h32.508V8.127  C272.254,3.639,268.615,0,264.127,0z"/>
<path style="fill:#8C5F50;" d="M264.127,284.444c-4.488,0-8.127-3.639-8.127-8.127V8.127C256,3.638,259.638,0,264.127,0h-16.254  c-4.488,0-8.127,3.639-8.127,8.127v292.571h32.508v-16.254L264.127,284.444L264.127,284.444z"/>
<rect x="239.75" y="316.95" style="fill:#7F8499;" width="32.508" height="16.254"/>
<path style="fill:#959CB5;" d="M272.254,381.968h-8.127c-4.488,0-8.127-3.639-8.127-8.127v-73.143h-16.254v81.27  c-22.405,0-40.635,18.23-40.635,40.635v81.27c0,4.492,3.635,8.127,8.127,8.127s8.127-3.635,8.127-8.127v-81.27  c0-10.581,6.814-19.518,16.254-22.883v104.153c0,4.492,3.635,8.127,8.127,8.127s8.127-3.635,8.127-8.127V398.222h16.254v105.651  c0,4.492,3.635,8.127,8.127,8.127s8.127-3.635,8.127-8.127V399.72c9.439,3.366,16.254,12.303,16.254,22.883v81.27  c0,4.492,3.635,8.127,8.127,8.127s8.127-3.635,8.127-8.127v-81.27C312.889,400.161,294.696,381.968,272.254,381.968z"/>
<rect x="239.75" y="316.95" style="fill:#707487;" width="16.254" height="16.254"/>
<g>
</g>
<g>
</g>
<g>
</g>
<g>
</g>
<g>
</g>
<g>
</g>
<g>
</g>
<g>
</g>
<g>
</g>
<g>
</g>
<g>
</g>
<g>
</g>
<g>
</g>
<g>
</g>
<g>
</g>
</svg>
