<?xml version="1.0" encoding="iso-8859-1"?>
<!-- Generator: Adobe Illustrator 19.0.0, SVG Export Plug-In . SVG Version: 6.00 Build 0)  -->
<svg xmlns="http://www.w3.org/2000/svg" xmlns:xlink="http://www.w3.org/1999/xlink" version="1.1" id="Capa_1" x="0px" y="0px" viewBox="0 0 512.001 512.001" style="enable-background:new 0 0 512.001 512.001;" xml:space="preserve">
<path style="fill:#7F8499;" d="M312.89,65.016h-16.254V32.508c0-8.96-7.294-16.254-16.254-16.254H231.62  c-8.96,0-16.254,7.294-16.254,16.254v32.508h-16.254V32.508C199.112,14.579,213.691,0,231.62,0h48.762  c17.929,0,32.508,14.579,32.508,32.508V65.016z"/>
<path style="fill:#AFB9D2;" d="M348.476,69.2c-1.809-7.236-8.31-12.312-15.768-12.312H179.295c-7.458,0-13.959,5.076-15.768,12.312  l-5.049,20.196h195.048L348.476,69.2z"/>
<path style="fill:#959CB5;" d="M244.311,56.889h-65.016c-7.458,0-13.959,5.076-15.768,12.312l-5.049,20.196h65.016l5.049-20.196  C230.351,61.965,236.852,56.889,244.311,56.889z"/>
<path style="fill:#AFB9D2;" d="M409.019,228.95l-54.099-54.1c-6.097-6.096-9.522-14.365-9.522-22.987V89.397H166.604v62.466  c0,8.622-3.425,16.89-9.521,22.987l-54.1,54.1c-6.096,6.096-9.521,14.365-9.521,22.987v243.81c0,8.977,7.277,16.254,16.254,16.254  h292.571c8.976,0,16.254-7.277,16.254-16.254v-243.81C418.541,243.315,415.116,235.046,409.019,228.95z"/>
<path style="fill:#959CB5;" d="M345.398,89.397H166.604v62.466c0,8.622-3.425,16.89-9.521,22.987l-54.1,54.1  c-6.096,6.096-9.521,14.365-9.521,22.987v243.81c0,8.977,7.277,16.254,16.254,16.254h89.397V251.937  c0-8.622,1.199-16.89,3.332-22.987l18.935-54.1c2.134-6.096,3.333-3.688,3.333-12.31v-40.635c0-4.488,3.639-8.127,8.127-8.127  h112.559L345.398,89.397L345.398,89.397z"/>
<path style="fill:#C7CFE2;" d="M361.652,97.524H150.35c-4.492,0-8.127-3.635-8.127-8.127s3.635-8.127,8.127-8.127h211.302  c4.492,0,8.127,3.635,8.127,8.127S366.144,97.524,361.652,97.524z"/>
<g>
	<path style="fill:#959CB5;" d="M102.602,146.989c-7.895-4.038-17.268,1.696-17.268,10.564v0.071c0,3.147,1.25,6.165,3.475,8.39   l53.414,53.414l14.86-44.579L102.602,146.989z"/>
	<path style="fill:#959CB5;" d="M409.4,146.989c7.895-4.038,17.268,1.696,17.268,10.564v0.071c0,3.147-1.25,6.165-3.475,8.39   l-53.414,53.414l-14.86-44.579L409.4,146.989z"/>
</g>
<path style="fill:#AFB9D2;" d="M215.366,89.397c0-4.492,3.635-8.127,8.127-8.127H150.35c-4.492,0-8.127,3.635-8.127,8.127  s3.635,8.127,8.127,8.127h73.143C219.001,97.524,215.366,93.889,215.366,89.397z"/>
<path style="fill:#C7CFE2;" d="M354.92,174.85c-1.288-1.288-2.388-2.719-3.431-4.183H160.513c-1.042,1.464-2.142,2.895-3.43,4.183  l-54.1,54.1c-6.096,6.096-9.521,14.365-9.521,22.987h325.079c0-8.622-3.425-16.89-9.522-22.987L354.92,174.85z"/>
<path style="fill:#AFB9D2;" d="M221.379,174.85c0.769-2.198,1.412-3.281,1.926-4.183h-62.793c-1.042,1.464-2.142,2.895-3.43,4.183  l-54.1,54.1c-6.096,6.096-9.521,14.365-9.521,22.987h105.651c0-8.622,1.199-16.89,3.332-22.987L221.379,174.85z"/>
<g>
</g>
<g>
</g>
<g>
</g>
<g>
</g>
<g>
</g>
<g>
</g>
<g>
</g>
<g>
</g>
<g>
</g>
<g>
</g>
<g>
</g>
<g>
</g>
<g>
</g>
<g>
</g>
<g>
</g>
</svg>
