<?xml version="1.0" encoding="iso-8859-1"?>
<!-- Generator: Adobe Illustrator 19.0.0, SVG Export Plug-In . SVG Version: 6.00 Build 0)  -->
<svg xmlns="http://www.w3.org/2000/svg" xmlns:xlink="http://www.w3.org/1999/xlink" version="1.1" id="Capa_1" x="0px" y="0px" viewBox="0 0 511.999 511.999" style="enable-background:new 0 0 511.999 511.999;" xml:space="preserve">
<path style="fill:#EBC9A0;" d="M508.522,30.963c6.199,34.229,13.303,122.661-67.249,162.937l-67.372-84.215l120.166-84.637  C499.613,21.142,507.313,24.288,508.522,30.963z"/>
<path style="fill:#E1B18C;" d="M400.334,142.727c24.424-14.256,57.255-42.516,84.368-71.481  c10.081-10.769,27.835-4.881,26.951,9.843c-2.344,39.023-17.41,86.326-70.38,112.811L400.334,142.727z"/>
<path style="fill:#EBC9A0;" d="M3.478,30.963C-2.721,65.192-9.825,153.624,70.727,193.9l67.372-84.215L17.933,25.048  C12.387,21.142,4.687,24.288,3.478,30.963z"/>
<path style="fill:#E1B18C;" d="M111.666,142.727c-24.424-14.256-57.255-42.516-84.368-71.481  c-10.08-10.769-27.835-4.881-26.95,9.843c2.344,39.023,17.41,86.326,70.38,112.811L111.666,142.727z"/>
<path style="fill:#F5DCB4;" d="M255.998,59.151c125.579,0,227.38,122.918,227.38,237.056c0,91.382-92.636,184.019-227.379,175.603  c-134.744,8.422-227.38-84.215-227.38-175.597C28.62,182.074,130.421,59.156,255.998,59.151z"/>
<path style="fill:#EBC9A0;" d="M256,278.115c-44.183,0-82.173,20.149-99.432,49.147c-7.312,12.285-25.679,11.294-30.46-2.18  c-3.156-8.893-4.852-18.501-4.852-28.87c0-104.315,72.449-215.902,166.58-234.351c-10.409-1.738-21.027-2.71-31.838-2.71  C130.421,59.156,28.62,182.074,28.62,296.212c0,78.833,68.976,158.539,174.418,173.553c14.457,11.771,32.851,18.887,52.962,18.887  c42.229,0,77.097-31.116,83.177-71.652c16.364-14.717,26.303-33.787,26.303-54.671C365.479,315.819,316.464,278.115,256,278.115z"/>
<circle style="fill:#E1B18C;" cx="256" cy="404.437" r="84.22"/>
<ellipse style="fill:#EBAF96;" cx="256" cy="362.327" rx="92.64" ry="67.37"/>
<g>
	<path style="fill:#784B41;" d="M171.785,254.956c-5.814,0-10.527-4.712-10.527-10.527v-8.421c0-5.814,4.712-10.527,10.527-10.527   c5.814,0,10.527,4.712,10.527,10.527v8.421C182.312,250.243,177.6,254.956,171.785,254.956z"/>
	<path style="fill:#784B41;" d="M340.215,254.956c-5.814,0-10.527-4.712-10.527-10.527v-8.421c0-5.814,4.712-10.527,10.527-10.527   s10.527,4.712,10.527,10.527v8.421C350.742,250.243,346.029,254.956,340.215,254.956z"/>
</g>
<g>
	<path style="fill:#64372F;" d="M222.314,374.962c-6.974,0-12.632-5.654-12.632-12.632v-8.421c0-6.978,5.658-12.632,12.632-12.632   s12.632,5.654,12.632,12.632v8.421C234.946,369.308,229.288,374.962,222.314,374.962z"/>
	<path style="fill:#64372F;" d="M289.686,374.962c-6.974,0-12.632-5.654-12.632-12.632v-8.421c0-6.978,5.658-12.632,12.632-12.632   s12.632,5.654,12.632,12.632v8.421C302.318,369.308,296.66,374.962,289.686,374.962z"/>
</g>
<path style="fill:#E19B87;" d="M285.475,412.859c-48.836,0-88.426-30.163-88.426-67.372c0-17.462,8.793-33.319,23.095-45.289  c-33.354,10.193-56.781,34.17-56.781,62.132c0,37.208,41.475,67.372,92.636,67.372c29.24,0,55.274-9.876,72.252-25.265  C315.571,409.79,300.999,412.859,285.475,412.859z"/>
<path style="fill:#EBC9A0;" d="M339.177,417.001c-20.08,18.059-49.863,29.544-83.177,29.544c-1.609,0-3.206-0.034-4.793-0.097  c-7.096-0.283-11.213,8.052-6.728,13.557c9.364,11.492,28.452,19.958,50.007,19.28C318.062,467.137,335.095,444.212,339.177,417.001  z"/>
<g>
</g>
<g>
</g>
<g>
</g>
<g>
</g>
<g>
</g>
<g>
</g>
<g>
</g>
<g>
</g>
<g>
</g>
<g>
</g>
<g>
</g>
<g>
</g>
<g>
</g>
<g>
</g>
<g>
</g>
</svg>
