<?xml version="1.0" encoding="iso-8859-1"?>
<!-- Generator: Adobe Illustrator 19.0.0, SVG Export Plug-In . SVG Version: 6.00 Build 0)  -->
<svg xmlns="http://www.w3.org/2000/svg" xmlns:xlink="http://www.w3.org/1999/xlink" version="1.1" id="Capa_1" x="0px" y="0px" viewBox="0 0 512 512" style="enable-background:new 0 0 512 512;" xml:space="preserve">
<g>
	<path style="fill:#7F8499;" d="M404.634,214.71h-8.258c-4.565,0-8.258-3.694-8.258-8.258s3.694-8.258,8.258-8.258h8.258v-49.548   c0-53.669-29.879-101.871-77.976-125.79c-4.081-2.032-5.75-6.992-3.718-11.073s6.976-5.758,11.073-3.718   c53.75,26.726,87.137,80.597,87.137,140.581v49.548C421.151,207.298,413.739,214.71,404.634,214.71z"/>
	<path style="fill:#7F8499;" d="M107.366,214.71h8.258c4.565,0,8.258-3.694,8.258-8.258s-3.694-8.258-8.258-8.258h-8.258v-49.548   c0-53.669,29.879-101.871,77.976-125.79c4.081-2.032,5.75-6.992,3.718-11.073s-6.976-5.758-11.073-3.718   C124.237,34.791,90.85,88.662,90.85,148.646v49.548C90.849,207.298,98.261,214.71,107.366,214.71z"/>
</g>
<path style="fill:#AFB9D2;" d="M107.344,198.194l23.573,298.59c0.678,8.591,7.847,15.216,16.465,15.216h217.215  c8.617,0,15.787-6.626,16.465-15.216l23.573-298.59H107.344z"/>
<g>
	<path style="fill:#959CB5;" d="M210.624,496.784l-12.442-298.59h-90.839l23.573,298.59c0.678,8.591,7.847,15.216,16.465,15.216   h71.932C214.766,512,210.982,505.374,210.624,496.784z"/>
	<path style="fill:#959CB5;" d="M396.376,305.548H115.602c-4.565,0-8.258-3.694-8.258-8.258s3.694-8.258,8.258-8.258h280.774   c4.565,0,8.258,3.694,8.258,8.258S400.941,305.548,396.376,305.548z"/>
</g>
<path style="fill:#AE8B70;" d="M330.312,33.032H181.667c-4.561,0-8.258-3.697-8.258-8.258V8.258c0-4.561,3.697-8.258,8.258-8.258  h148.645c4.561,0,8.258,3.697,8.258,8.258v16.516C338.57,29.335,334.873,33.032,330.312,33.032z"/>
<path style="fill:#959CB5;" d="M399.126,272.516H112.852c-4.565,0-8.258-3.694-8.258-8.258s3.694-8.258,8.258-8.258h286.274  c4.565,0,8.258,3.694,8.258,8.258S403.691,272.516,399.126,272.516z"/>
<g>
	<path style="fill:#7F8499;" d="M192.675,297.29c0-4.565,3.694-8.258,8.258-8.258h-85.331c-4.565,0-8.258,3.694-8.258,8.258   s3.694,8.258,8.258,8.258h85.331C196.368,305.548,192.675,301.855,192.675,297.29z"/>
	<path style="fill:#7F8499;" d="M189.925,264.258c0-4.565,3.694-8.258,8.258-8.258h-85.331c-4.565,0-8.258,3.694-8.258,8.258   s3.694,8.258,8.258,8.258h85.331C193.618,272.516,189.925,268.823,189.925,264.258z"/>
</g>
<path style="fill:#9B735A;" d="M198.183,16.516c-4.561,0-8.258-3.698-8.258-8.258V0h-8.258c-4.561,0-8.258,3.697-8.258,8.258v16.516  c0,4.56,3.697,8.258,8.258,8.258h148.645c4.561,0,8.258-3.698,8.258-8.258v-8.258C338.57,16.516,198.183,16.516,198.183,16.516z"/>
<g>
</g>
<g>
</g>
<g>
</g>
<g>
</g>
<g>
</g>
<g>
</g>
<g>
</g>
<g>
</g>
<g>
</g>
<g>
</g>
<g>
</g>
<g>
</g>
<g>
</g>
<g>
</g>
<g>
</g>
</svg>
