<?xml version="1.0" encoding="iso-8859-1"?>
<!-- Generator: Adobe Illustrator 19.0.0, SVG Export Plug-In . SVG Version: 6.00 Build 0)  -->
<svg xmlns="http://www.w3.org/2000/svg" xmlns:xlink="http://www.w3.org/1999/xlink" version="1.1" id="Capa_1" x="0px" y="0px" viewBox="0 0 512.001 512.001" style="enable-background:new 0 0 512.001 512.001;" xml:space="preserve">
<path style="fill:#B4E66E;" d="M371.088,0.444c3.947,0.471,7.02,3.544,7.492,7.492c2.321,19.431-4.458,40.387-20.148,56.077  c-15.689,15.689-36.645,22.469-56.077,20.148c-3.947-0.471-7.02-3.544-7.492-7.492c-2.321-19.431,4.458-40.387,20.148-56.077  S351.657-1.877,371.088,0.444z"/>
<path style="fill:#A0D755;" d="M378.58,7.936c-0.236-1.974-1.122-3.729-2.443-5.049l-78.831,78.831  c1.321,1.321,3.076,2.207,5.049,2.443c19.431,2.321,40.387-4.458,56.077-20.148C374.121,48.323,380.901,27.367,378.58,7.936z"/>
<path style="fill:#B4E66E;" d="M140.365,66.791c-3.404,0.489-6.172,3.257-6.661,6.661c-3.25,22.636,4.418,47.306,22.772,65.659  s43.023,26.022,65.659,22.772c3.404-0.489,6.172-3.257,6.661-6.661c3.25-22.636-4.418-47.306-22.772-65.659  S163.001,63.541,140.365,66.791z"/>
<path style="fill:#A0D755;" d="M226.559,159.645l-90.618-90.617c-1.179,1.179-1.993,2.722-2.237,4.424  c-3.25,22.636,4.418,47.305,22.772,65.659c18.354,18.353,43.023,26.022,65.659,22.772  C223.837,161.639,225.38,160.824,226.559,159.645z"/>
<path style="fill:#9B735A;" d="M182.526,363.355l7.392,133.045c0.486,8.753,7.725,15.6,16.49,15.6h117.397  c8.766,0,16.005-6.848,16.49-15.6l7.392-133.045L182.526,363.355L182.526,363.355z"/>
<path style="fill:#87BE4B;" d="M332.034,46.992c-3.226-3.226-8.452-3.226-11.677,0l-36.903,36.903  c-17.153,17.153-26.605,39.968-26.605,64.226v30.137l-66.718-66.718c-3.226-3.226-8.452-3.226-11.677,0  c-3.226,3.226-3.226,8.452,0,11.677l78.395,78.395V338.58c0,4.565,3.694,8.258,8.258,8.258s8.258-3.694,8.258-8.258V148.12  c0-19.565,7.935-38.718,21.766-52.548l36.903-36.903C335.26,55.444,335.26,50.218,332.034,46.992z"/>
<path style="fill:#FFDC64;" d="M333.898,237.568l-10.984-6.342l10.984-6.342c7.9-4.561,10.606-14.662,6.045-22.561  c-4.561-7.9-14.662-10.606-22.561-6.045l-10.984,6.342v-12.683c0-9.122-7.395-16.516-16.516-16.516s-16.516,7.394-16.516,16.516  v12.683l-10.984-6.342c-7.9-4.561-18-1.854-22.561,6.045c-4.56,7.899-1.854,18.001,6.045,22.561l10.984,6.342l-10.984,6.342  c-7.899,4.56-10.606,14.662-6.045,22.561s14.662,10.606,22.561,6.045l10.984-6.342v12.683c0,9.121,7.395,16.516,16.516,16.516  s16.516-7.395,16.516-16.516v-12.683l10.984,6.342c7.899,4.56,18.001,1.854,22.561-6.045  C344.503,252.229,341.797,242.128,333.898,237.568z"/>
<circle style="fill:#FFC850;" cx="289.881" cy="231.23" r="33.03"/>
<path style="fill:#AE8B70;" d="M355.945,363.355H174.268c-4.561,0-8.258-3.697-8.258-8.258v-16.516c0-4.561,3.697-8.258,8.258-8.258  h181.677c4.561,0,8.258,3.697,8.258,8.258v16.516C364.204,359.658,360.506,363.355,355.945,363.355z"/>
<path style="fill:#9B735A;" d="M215.558,355.097v-16.516c0-4.561,3.697-8.258,8.258-8.258h-49.548c-4.561,0-8.258,3.697-8.258,8.258  v16.516c0,4.56,3.697,8.258,8.258,8.258h49.548C219.255,363.355,215.558,359.657,215.558,355.097z"/>
<path style="fill:#8C5F50;" d="M232.546,379.871H346.77l0.918-16.516H182.526l7.392,133.046c0.486,8.752,7.725,15.6,16.49,15.6  h24.749l-6.856-123.414C224.038,383.854,227.805,379.871,232.546,379.871z"/>
<circle style="fill:#9B735A;" cx="289.881" cy="231.23" r="16.516"/>
<g>
</g>
<g>
</g>
<g>
</g>
<g>
</g>
<g>
</g>
<g>
</g>
<g>
</g>
<g>
</g>
<g>
</g>
<g>
</g>
<g>
</g>
<g>
</g>
<g>
</g>
<g>
</g>
<g>
</g>
</svg>
