<?xml version="1.0" encoding="iso-8859-1"?>
<!-- Generator: Adobe Illustrator 19.0.0, SVG Export Plug-In . SVG Version: 6.00 Build 0)  -->
<svg xmlns="http://www.w3.org/2000/svg" xmlns:xlink="http://www.w3.org/1999/xlink" version="1.1" id="Capa_1" x="0px" y="0px" viewBox="0 0 512 512" style="enable-background:new 0 0 512 512;" xml:space="preserve">
<circle style="fill:#A0D755;" cx="304.76" cy="260.06" r="113.78"/>
<path style="fill:#87BE4B;" d="M408.09,212.644c-20.191-43.915-67.401-72.837-120.42-65.11  c-48.626,7.087-87.781,46.149-95.303,94.71c-4.08,26.34,1.096,51.139,12.515,72.058c-0.058-0.01-0.117-0.013-0.175-0.024  c19.264,35.477,56.846,59.563,100.055,59.563c10.425,0,20.474-1.52,30.065-4.146c-17.858-9.028-32.967-22.636-43.869-39.256  c-2.944-4.487-0.747-10.688,4.406-12.188C347.623,303.043,389.559,263.453,408.09,212.644z"/>
<circle style="fill:#B4E66E;" cx="247.87" cy="154.41" r="154.41"/>
<path style="fill:#A0D755;" d="M337.27,260.064c-85.28,0-154.413-69.133-154.413-154.413c0-39.85,15.225-76.055,40.01-103.447  C149.508,14.179,93.46,77.668,93.46,154.413c0,85.28,69.133,154.413,154.413,154.413c45.43,0,86.147-19.739,114.402-50.966  C354.118,259.191,345.805,260.064,337.27,260.064z"/>
<g>
	<path style="fill:#9B735A;" d="M247.873,292.571c-2.079,0-4.159-0.794-5.746-2.381l-48.762-48.762   c-3.175-3.175-3.175-8.317,0-11.492s8.317-3.175,11.492,0l48.762,48.762c3.175,3.175,3.175,8.317,0,11.492   C252.032,291.778,249.952,292.571,247.873,292.571z"/>
	<path style="fill:#9B735A;" d="M247.873,268.19c-2.079,0-4.159-0.794-5.746-2.381c-3.175-3.175-3.175-8.317,0-11.492l40.635-40.635   c3.175-3.175,8.317-3.175,11.492,0s3.175,8.317,0,11.492l-40.635,40.635C252.032,267.397,249.952,268.19,247.873,268.19z"/>
</g>
<g>
	<path style="fill:#C8FF82;" d="M239.746,162.54c-2.079,0-4.159-0.794-5.746-2.381l-8.127-8.127c-3.175-3.175-3.175-8.317,0-11.492   s8.317-3.175,11.492,0l8.127,8.127c3.175,3.175,3.175,8.317,0,11.492C243.905,161.746,241.825,162.54,239.746,162.54z"/>
	<path style="fill:#C8FF82;" d="M296.635,105.651c-2.079,0-4.159-0.794-5.746-2.381c-3.175-3.175-3.175-8.317,0-11.492l8.127-8.127   c3.175-3.175,8.317-3.175,11.492,0c3.175,3.175,3.175,8.317,0,11.492l-8.127,8.127   C300.794,104.857,298.714,105.651,296.635,105.651z"/>
</g>
<path style="fill:#B4E66E;" d="M158.476,121.905c-2.079,0-4.159-0.794-5.746-2.381l-8.127-8.127c-3.175-3.175-3.175-8.317,0-11.492  c3.175-3.175,8.317-3.175,11.492,0l8.127,8.127c3.175,3.175,3.175,8.317,0,11.492C162.635,121.111,160.556,121.905,158.476,121.905z  "/>
<g>
	<path style="fill:#C8FF82;" d="M337.27,219.429c-4.492,0-8.127-3.635-8.127-8.127v-8.127c0-4.492,3.635-8.127,8.127-8.127   s8.127,3.635,8.127,8.127v8.127C345.397,215.794,341.762,219.429,337.27,219.429z"/>
	<path style="fill:#C8FF82;" d="M361.651,154.413h-8.127c-4.492,0-8.127-3.635-8.127-8.127s3.635-8.127,8.127-8.127h8.127   c4.492,0,8.127,3.635,8.127,8.127S366.143,154.413,361.651,154.413z"/>
	<path style="fill:#C8FF82;" d="M280.381,65.016c-4.492,0-8.127-3.635-8.127-8.127v-8.127c0-4.492,3.635-8.127,8.127-8.127   s8.127,3.635,8.127,8.127v8.127C288.508,61.381,284.873,65.016,280.381,65.016z"/>
	<path style="fill:#C8FF82;" d="M215.365,203.175h-8.127c-4.492,0-8.127-3.635-8.127-8.127s3.635-8.127,8.127-8.127h8.127   c4.492,0,8.127,3.635,8.127,8.127S219.857,203.175,215.365,203.175z"/>
</g>
<path style="fill:#8C5F50;" d="M304.762,512c-4.492,0-8.127-3.635-8.127-8.127V333.206c0-4.492,3.635-8.127,8.127-8.127  s8.127,3.635,8.127,8.127v170.667C312.889,508.365,309.254,512,304.762,512z"/>
<g>
	<circle style="fill:#FF6E64;" cx="231.62" cy="81.27" r="16.254"/>
	<circle style="fill:#FF6E64;" cx="166.6" cy="178.79" r="16.254"/>
	<circle style="fill:#FF6E64;" cx="296.63" cy="154.41" r="16.254"/>
</g>
<g>
	<circle style="fill:#87BE4B;" cx="337.27" cy="113.78" r="8.127"/>
	<circle style="fill:#87BE4B;" cx="199.11" cy="138.16" r="8.127"/>
	<circle style="fill:#87BE4B;" cx="182.78" cy="73.14" r="8.127"/>
	<circle style="fill:#87BE4B;" cx="312.89" cy="243.81" r="8.127"/>
	<circle style="fill:#87BE4B;" cx="166.52" cy="227.56" r="8.127"/>
</g>
<path style="fill:#B4E66E;" d="M207.238,203.175h8.127c0.688,0,1.301-0.23,1.939-0.391c-4.019-4.959-7.644-10.23-11.034-15.668  c-4.012,0.498-7.159,3.783-7.159,7.932C199.111,199.54,202.746,203.175,207.238,203.175z"/>
<path style="fill:#8C5F50;" d="M247.873,512c-4.492,0-8.127-3.635-8.127-8.127V211.302c0-4.492,3.635-8.127,8.127-8.127  S256,206.81,256,211.302v292.571C256,508.365,252.365,512,247.873,512z"/>
<path style="fill:#B4E66E;" d="M353.524,512H199.111c-4.492,0-8.127-3.635-8.127-8.127s3.635-8.127,8.127-8.127h154.413  c4.492,0,8.127,3.635,8.127,8.127S358.016,512,353.524,512z"/>
<circle style="fill:#A0D755;" cx="272.17" cy="333.21" r="8.127"/>
<g>
	<circle style="fill:#C8FF82;" cx="337.27" cy="333.21" r="8.127"/>
	<circle style="fill:#C8FF82;" cx="369.78" cy="300.7" r="8.127"/>
</g>
<g>
</g>
<g>
</g>
<g>
</g>
<g>
</g>
<g>
</g>
<g>
</g>
<g>
</g>
<g>
</g>
<g>
</g>
<g>
</g>
<g>
</g>
<g>
</g>
<g>
</g>
<g>
</g>
<g>
</g>
</svg>
