<?xml version="1.0" encoding="iso-8859-1"?>
<!-- Generator: Adobe Illustrator 19.0.0, SVG Export Plug-In . SVG Version: 6.00 Build 0)  -->
<svg xmlns="http://www.w3.org/2000/svg" xmlns:xlink="http://www.w3.org/1999/xlink" version="1.1" id="Capa_1" x="0px" y="0px" viewBox="0 0 512 512" style="enable-background:new 0 0 512 512;" xml:space="preserve">
<g>
	<path style="fill:#FFC850;" d="M336,128c0,44.183-35.817,80-80,80C256,163.817,291.817,128,336,128z"/>
	<path style="fill:#FFC850;" d="M176,128c0,44.183,35.817,80,80,80C256,163.817,220.183,128,176,128z"/>
</g>
<path style="fill:#FFDC64;" d="M336,96c-4.422,0-8,3.578-8,8v24c0,39.703-32.297,72-72,72s-72-32.297-72-72v-24c0-4.422-3.578-8-8-8  s-8,3.578-8,8v24c0,48.523,39.477,88,88,88s88-39.477,88-88v-24C344,99.578,340.422,96,336,96z"/>
<g>
	<path style="fill:#FFC850;" d="M336,224c0,44.183-35.817,80-80,80C256,259.817,291.817,224,336,224z"/>
	<path style="fill:#FFC850;" d="M176,224c0,44.183,35.817,80,80,80C256,259.817,220.183,224,176,224z"/>
</g>
<path style="fill:#FFDC64;" d="M336,192c-4.422,0-8,3.578-8,8v24c0,39.703-32.297,72-72,72s-72-32.297-72-72v-24  c0-4.422-3.578-8-8-8s-8,3.578-8,8v24c0,48.523,39.477,88,88,88s88-39.477,88-88v-24C344,195.578,340.422,192,336,192z"/>
<g>
	<path style="fill:#FFC850;" d="M336,320c0,44.183-35.817,80-80,80C256,355.817,291.817,320,336,320z"/>
	<path style="fill:#FFC850;" d="M176,320c0,44.183,35.817,80,80,80C256,355.817,220.183,320,176,320z"/>
</g>
<g>
	<path style="fill:#FFDC64;" d="M336,288c-4.422,0-8,3.578-8,8v24c0,39.703-32.297,72-72,72s-72-32.297-72-72v-24   c0-4.422-3.578-8-8-8s-8,3.578-8,8v24c0,48.523,39.477,88,88,88s88-39.477,88-88v-24C344,291.578,340.422,288,336,288z"/>
	<path style="fill:#FFDC64;" d="M256,48c-4.422,0-8-3.578-8-8V8c0-4.422,3.578-8,8-8s8,3.578,8,8v32C264,44.422,260.422,48,256,48z"/>
</g>
<path style="fill:#FFC850;" d="M249.719,30.804c-22.991,27.974-23.515,67.472-1.719,96.059V504c0,4.422,3.578,8,8,8s8-3.578,8-8  V126.863c21.796-28.587,21.272-68.085-1.719-96.059C259.046,26.868,252.954,26.868,249.719,30.804z"/>
<g>
</g>
<g>
</g>
<g>
</g>
<g>
</g>
<g>
</g>
<g>
</g>
<g>
</g>
<g>
</g>
<g>
</g>
<g>
</g>
<g>
</g>
<g>
</g>
<g>
</g>
<g>
</g>
<g>
</g>
</svg>
