<?xml version="1.0" encoding="iso-8859-1"?>
<!-- Generator: Adobe Illustrator 19.0.0, SVG Export Plug-In . SVG Version: 6.00 Build 0)  -->
<svg xmlns="http://www.w3.org/2000/svg" xmlns:xlink="http://www.w3.org/1999/xlink" version="1.1" id="Capa_1" x="0px" y="0px" viewBox="0 0 512 512" style="enable-background:new 0 0 512 512;" xml:space="preserve">
<path style="fill:#FFDC64;" d="M417.328,136.551l-37.455-37.455H132.131l-37.455,37.455c-7.743,7.743-12.094,18.246-12.094,29.197  v313.22c0,18.243,14.789,33.032,33.032,33.032h280.774c18.244,0,33.032-14.789,33.032-33.032v-313.22  C429.421,154.797,425.071,144.295,417.328,136.551z"/>
<path style="fill:#FFC850;" d="M379.873,99.097H222.97h-90.839l-37.455,37.455c-7.743,7.743-12.094,18.246-12.094,29.197v313.219  c0,18.243,14.789,33.032,33.032,33.032h90.839c-18.243,0-33.032-14.789-33.032-33.032v-313.22c0-10.951,4.35-21.453,12.094-29.196  l1.957-1.957c7.615-7.615,19.295-9.494,28.846-4.517c0.114,0.059,0.228,0.119,0.343,0.179c8.652,4.514,19.419,10.131,39.298,10.131  c19.874,0,30.64-5.618,39.29-10.132c7.102-3.706,12.233-6.384,24.008-6.384c11.787,0,16.924,2.678,24.033,6.386  c8.654,4.513,19.424,10.13,39.307,10.13c14.743,0,24.464-3.091,32.038-6.528L379.873,99.097z"/>
<path style="fill:#826469;" d="M363.357,412.903h-214.71c-9.122,0-16.516-7.395-16.516-16.516V206.452  c0-9.122,7.395-16.516,16.516-16.516h214.71c9.122,0,16.516,7.395,16.516,16.516v189.935  C379.873,405.509,372.479,412.903,363.357,412.903z"/>
<g>
	<path style="fill:#5F4B55;" d="M247.752,272.516c-2.669,0-5.29-1.29-6.879-3.677l-16.516-24.774   c-2.532-3.798-1.508-8.919,2.29-11.452c3.806-2.532,8.919-1.5,11.452,2.29l16.516,24.774c2.532,3.798,1.508,8.919-2.29,11.452   C250.913,272.065,249.325,272.516,247.752,272.516z"/>
	<path style="fill:#5F4B55;" d="M264.252,272.516c-1.573,0-3.161-0.452-4.573-1.387c-3.798-2.532-4.823-7.653-2.29-11.452   l16.516-24.774c2.524-3.79,7.637-4.823,11.452-2.29c3.798,2.532,4.823,7.653,2.29,11.452l-16.516,24.774   C269.542,271.226,266.921,272.516,264.252,272.516z"/>
</g>
<g>
	<path style="fill:#E4EAF8;" d="M206.454,338.581c-4.226,0-8.452-1.613-11.677-4.839c-6.452-6.452-6.452-16.903,0-23.355   l24.774-24.774c6.452-6.452,16.903-6.452,23.355,0s6.452,16.903,0,23.355l-24.774,24.774   C214.905,336.968,210.68,338.581,206.454,338.581z"/>
	<path style="fill:#E4EAF8;" d="M305.55,338.581c4.226,0,8.452-1.613,11.677-4.839c6.452-6.452,6.452-16.903,0-23.355   l-24.774-24.774c-6.452-6.452-16.903-6.452-23.355,0s-6.452,16.903,0,23.355l24.774,24.774   C297.099,336.968,301.325,338.581,305.55,338.581z"/>
</g>
<g>
	<circle style="fill:#6E555E;" cx="256" cy="280.77" r="24.774"/>
	<path style="fill:#6E555E;" d="M432.698,94.115L379.873,41.29H132.131L79.302,94.119c-4.987,4.987-2.719,13.474,4.073,15.378   c15.941,4.469,21.469,14.374,45.971,14.374c31.648,0,31.648-16.516,63.295-16.516c31.659,0,31.659,16.516,63.318,16.516   c31.649,0,31.649-16.516,63.297-16.516c31.67,0,31.67,16.516,63.341,16.516c24.531,0,30.06-9.91,46.026-14.377   C435.415,107.593,437.686,99.103,432.698,94.115z"/>
</g>
<path style="fill:#FFC850;" d="M379.873,487.226H132.131c-4.561,0-8.258-3.697-8.258-8.258v-8.258c0-4.561,3.697-8.258,8.258-8.258  h247.742c4.561,0,8.258,3.697,8.258,8.258v8.258C388.131,483.529,384.434,487.226,379.873,487.226z"/>
<path style="fill:#E1A546;" d="M173.421,462.452h-41.29c-4.561,0-8.258,3.697-8.258,8.258v8.258c0,4.56,3.697,8.258,8.258,8.258  h42.458c-0.688-2.654-1.168-5.389-1.168-8.258L173.421,462.452L173.421,462.452z"/>
<path style="fill:#5F4B55;" d="M404.647,66.065L379.873,41.29H132.131L79.303,94.119c-4.987,4.987-2.718,13.474,4.073,15.378  c15.941,4.469,21.469,14.374,45.97,14.374c31.648,0,31.648-16.516,63.295-16.516c0.846,0,1.584,0.056,2.385,0.079  c0.208-0.973,0.466-1.908,0.813-2.749l11.677-28.387c2.547-6.191,8.579-10.233,15.274-10.233H404.647z"/>
<path style="fill:#826469;" d="M379.873,0H132.131c-9.121,0-16.516,7.394-16.516,16.516v16.516c0,9.121,7.395,16.516,16.516,16.516  h247.742c9.121,0,16.516-7.395,16.516-16.516V16.516C396.389,7.394,388.994,0,379.873,0z"/>
<g>
	<path style="fill:#6E555E;" d="M189.938,33.032V16.516C189.938,7.394,197.332,0,206.454,0h-74.323   c-9.121,0-16.516,7.394-16.516,16.516v16.516c0,9.121,7.395,16.516,16.516,16.516h74.323   C197.332,49.548,189.938,42.154,189.938,33.032z"/>
	<path style="fill:#6E555E;" d="M148.647,189.935c-9.121,0-16.516,7.394-16.516,16.516v189.935c0,9.121,7.395,16.516,16.516,16.516   h24.774V189.935H148.647z"/>
</g>
<ellipse style="fill:#FFDC64;" cx="256" cy="326.19" rx="24.774" ry="37.16"/>
<path style="fill:#6E555E;" d="M231.228,326.194c0,4.367,0.595,8.495,1.517,12.387h46.514c0.922-3.892,1.517-8.02,1.517-12.387  s-0.595-8.495-1.517-12.387h-46.514C231.823,317.699,231.228,321.827,231.228,326.194z"/>
<g>
</g>
<g>
</g>
<g>
</g>
<g>
</g>
<g>
</g>
<g>
</g>
<g>
</g>
<g>
</g>
<g>
</g>
<g>
</g>
<g>
</g>
<g>
</g>
<g>
</g>
<g>
</g>
<g>
</g>
</svg>
