<?xml version="1.0" encoding="iso-8859-1"?>
<!-- Generator: Adobe Illustrator 19.0.0, SVG Export Plug-In . SVG Version: 6.00 Build 0)  -->
<svg xmlns="http://www.w3.org/2000/svg" xmlns:xlink="http://www.w3.org/1999/xlink" version="1.1" id="Capa_1" x="0px" y="0px" viewBox="0 0 512 512" style="enable-background:new 0 0 512 512;" xml:space="preserve">
<path style="fill:#F5DCB4;" d="M387.52,3.491c6.986,23.562,14.762,74.234-21.988,129.359l-67.404-33.702  c49.642-24.821,71.864-72.493,80.128-95.894C379.83-1.203,386.176-1.041,387.52,3.491z"/>
<g>
	<path style="fill:#FAEBC8;" d="M381.738,0.343c2.325-0.548,4.962,0.381,5.782,3.148c6.986,23.562,14.762,74.234-21.988,129.359   l-32.368-16.184C373.388,74.228,381.584,29.209,381.738,0.343z"/>
	<path style="fill:#FAEBC8;" d="M124.48,3.491c-6.986,23.562-14.762,74.234,21.988,129.359l67.404-33.702   c-49.642-24.821-71.864-72.493-80.128-95.894C132.17-1.203,125.824-1.041,124.48,3.491z"/>
</g>
<path style="fill:#F5DCB4;" d="M130.262,0.343c-2.325-0.548-4.962,0.381-5.782,3.148c-6.986,23.562-14.762,74.234,21.988,129.359  l32.368-16.184C138.612,74.228,130.416,29.209,130.262,0.343z"/>
<path style="fill:#AE8B70;" d="M90.401,107.573c-27.995,0-52.988,9.384-69.668,24.117c-5.774,5.1-5.774,14.071,0,19.17  c16.679,14.732,41.673,24.117,69.668,24.117c21.172,0,40.626-5.367,56.067-14.356v-38.692  C131.027,112.941,111.572,107.573,90.401,107.573z"/>
<path style="fill:#9B735A;" d="M146.468,131.917c-2.24-2.017-5.175-3.28-8.426-3.28H79.063c-6.977,0-12.638,5.657-12.638,12.638  s5.661,12.638,12.638,12.638h58.979c3.251,0,6.185-1.262,8.426-3.28V131.917z"/>
<path style="fill:#AE8B70;" d="M421.599,174.978c27.995,0,52.988-9.384,69.668-24.117c5.774-5.1,5.774-14.071,0-19.17  c-16.679-14.732-41.673-24.117-69.668-24.117c-21.172,0-40.626,5.367-56.067,14.356v38.692  C380.973,169.611,400.428,174.978,421.599,174.978z"/>
<path style="fill:#9B735A;" d="M365.532,150.634c2.24,2.017,5.175,3.28,8.426,3.28h58.979c6.977,0,12.638-5.657,12.638-12.638  s-5.661-12.638-12.638-12.638h-58.979c-3.251,0-6.185,1.262-8.426,3.28V150.634z"/>
<path style="fill:#FAEBC8;" d="M295.877,90.722h-79.755c-62.766,0-110.366,56.592-99.612,118.43l30.928,177.835  c4.861,27.949,20.093,56.555,49.582,74.46h117.958c29.489-17.904,44.722-46.51,49.582-74.46l30.928-177.835  C406.243,147.315,358.644,90.722,295.877,90.722z"/>
<path style="fill:#F5DCB4;" d="M194.341,386.987l-29.567-177.835c-10.281-61.838,35.224-118.43,95.23-118.43h-43.882  c-62.766,0-110.366,56.592-99.612,118.43l30.928,177.835c4.861,27.949,20.093,56.555,49.582,74.46h44.722  C213.551,443.542,198.989,414.936,194.341,386.987z"/>
<path style="fill:#AE8B70;" d="M115.244,198.284c0.237,3.599,0.633,7.223,1.267,10.869l30.928,177.835  c4.861,27.949,20.093,56.555,49.582,74.46h2.071C243.889,188.733,169.638,178.727,115.244,198.284z"/>
<path style="fill:#9B735A;" d="M194.341,386.987l-29.567-177.835c-0.836-5.025-1.175-9.992-1.295-14.921  c-15.542-4.675-32.695-1.536-48.235,4.052c0.237,3.599,0.633,7.223,1.267,10.869l30.928,177.835  c4.861,27.949,20.093,56.555,49.582,74.46h2.071c2.376-14.463,4.347-28.033,6.074-41.053  C199.809,409.639,196.218,398.277,194.341,386.987z"/>
<path style="fill:#AE8B70;" d="M396.756,198.284c-0.237,3.599-0.633,7.223-1.267,10.869l-30.928,177.835  c-4.861,27.949-20.093,56.555-49.582,74.46h-2.071C268.111,188.733,342.362,178.727,396.756,198.284z"/>
<g>
	<path style="fill:#64372F;" d="M171.744,269.765c-5.817,0-10.532-4.715-10.532-10.532v-8.426c0-5.817,4.715-10.532,10.532-10.532   s10.532,4.715,10.532,10.532v8.426C182.276,265.051,177.562,269.765,171.744,269.765z"/>
	<path style="fill:#64372F;" d="M340.256,269.765c-5.817,0-10.532-4.715-10.532-10.532v-8.426c0-5.817,4.715-10.532,10.532-10.532   c5.817,0,10.532,4.715,10.532,10.532v8.426C350.787,265.051,346.073,269.765,340.256,269.765z"/>
</g>
<circle style="fill:#F5DCB4;" cx="256" cy="427.74" r="33.702"/>
<path style="fill:#8C5F50;" d="M255.998,512h-26.1c-26.032,0-45.834-23.375-41.555-49.054l4.021-24.127  c2.481-14.885,17.367-24.294,31.877-20.149l24.812,7.089c2.27,0.648,4.608,0.973,6.944,0.973c2.338,0,4.676-0.324,6.946-0.973  l24.812-7.089c14.51-4.146,29.396,5.264,31.877,20.149l4.021,24.127C327.934,488.625,308.132,512,282.1,512H255.998z"/>
<path style="fill:#784B41;" d="M221.92,418.271c-13.738-2.575-27.207,6.459-29.555,20.548l-4.021,24.127  C184.065,488.625,203.867,512,229.899,512h34.211c4.827,0,8.741-3.913,8.741-8.741l0,0c0-4.384-3.291-8.018-7.634-8.617  C224.267,488.995,221.491,437.651,221.92,418.271z"/>
<g>
	<path style="fill:#64372F;" d="M230.723,469.872c-2.156,0-4.312-0.823-5.957-2.468l-8.426-8.426c-3.291-3.291-3.291-8.623,0-11.914   s8.623-3.291,11.914,0l8.426,8.426c3.291,3.291,3.291,8.623,0,11.914C235.035,469.049,232.879,469.872,230.723,469.872z"/>
	<path style="fill:#64372F;" d="M281.277,469.872c-2.156,0-4.312-0.823-5.957-2.468c-3.291-3.291-3.291-8.623,0-11.914l8.426-8.426   c3.291-3.291,8.623-3.291,11.914,0c3.291,3.291,3.291,8.623,0,11.914l-8.426,8.426   C285.588,469.049,283.432,469.872,281.277,469.872z"/>
</g>
<g>
</g>
<g>
</g>
<g>
</g>
<g>
</g>
<g>
</g>
<g>
</g>
<g>
</g>
<g>
</g>
<g>
</g>
<g>
</g>
<g>
</g>
<g>
</g>
<g>
</g>
<g>
</g>
<g>
</g>
</svg>
