<?xml version="1.0" encoding="iso-8859-1"?>
<!-- Generator: Adobe Illustrator 19.0.0, SVG Export Plug-In . SVG Version: 6.00 Build 0)  -->
<svg xmlns="http://www.w3.org/2000/svg" xmlns:xlink="http://www.w3.org/1999/xlink" version="1.1" id="Capa_1" x="0px" y="0px" viewBox="0 0 512 512" style="enable-background:new 0 0 512 512;" xml:space="preserve">
<path style="fill:#DCB991;" d="M344.16,284.92l33.86,104.185c2.211,6.804,8.552,11.411,15.707,11.411h55.28  c7.155,0,13.496-4.607,15.707-11.411l33.865-104.202L344.16,284.92z"/>
<path style="fill:#CAA781;" d="M411.374,301.433l81.838-0.012l5.368-16.517l-154.42,0.016l33.86,104.185  c2.211,6.805,8.553,11.411,15.708,11.411h18.959l-17.439-79.008C392.974,311.202,400.819,301.435,411.374,301.433z"/>
<path style="fill:#F5DCB4;" d="M299.347,147.67c-2.211-6.804-8.552-11.411-15.707-11.411h-55.28  c-7.155,0-13.496,4.607-15.707,11.411l-33.866,104.201l154.42-0.016L299.347,147.67z"/>
<path style="fill:#EBC9A0;" d="M244.7,147.67c1.419-6.804,5.488-11.411,10.08-11.411h-26.42c-7.155,0-13.496,4.607-15.707,11.411  l-33.866,104.201l44.181-0.005L244.7,147.67z"/>
<path style="fill:#FAEBC8;" d="M90.839,111.485c-41.047,0-74.323,57.806-74.323,123.871c0,5.692,0.64,11.234,1.852,16.56  l144.951-0.042c1.206-5.313,1.842-10.841,1.842-16.518C165.161,169.291,131.886,111.485,90.839,111.485z"/>
<path style="fill:#F5DCB4;" d="M66.065,233.408c0-49.88,15.216-95.463,37.725-119.846c-4.213-1.282-8.525-2.078-12.951-2.078  c-41.047,0-74.323,57.806-74.323,123.871c0,5.692,0.64,11.234,1.852,16.56l49.546-0.015  C66.705,245.953,66.065,239.765,66.065,233.408z"/>
<path style="fill:#FAEBC8;" d="M421.161,111.485c-41.047,0-74.323,57.806-74.323,123.871c0,5.692,0.64,11.234,1.852,16.56  l144.951-0.042c1.206-5.313,1.842-10.841,1.842-16.518C495.484,169.291,462.209,111.485,421.161,111.485z"/>
<path style="fill:#F5DCB4;" d="M396.387,233.408c0-49.88,15.216-95.463,37.725-119.846c-4.213-1.282-8.525-2.078-12.951-2.078  c-41.047,0-74.323,57.806-74.323,123.871c0,5.692,0.64,11.234,1.852,16.56l49.546-0.015  C397.027,245.953,396.387,239.765,396.387,233.408z"/>
<path style="fill:#DCB991;" d="M13.631,284.92l33.86,104.185c2.211,6.804,8.552,11.411,15.707,11.411h55.28  c7.155,0,13.496-4.607,15.707-11.411l33.865-104.202L13.631,284.92z"/>
<path style="fill:#CAA781;" d="M80.845,301.433l81.838-0.012l5.368-16.517l-154.42,0.016l33.86,104.185  c2.211,6.805,8.553,11.411,15.708,11.411h18.959L64.72,321.509C62.445,311.202,70.29,301.435,80.845,301.433z"/>
<path style="fill:#EBC9A0;" d="M503.742,284.904H8.258c-4.561,0-8.258-3.697-8.258-8.258V260.13c0-4.561,3.697-8.258,8.258-8.258  h495.484c4.561,0,8.258,3.697,8.258,8.258v16.516C512,281.207,508.303,284.904,503.742,284.904z"/>
<path style="fill:#DCB991;" d="M57.806,276.646V260.13c0-4.561,3.697-8.258,8.258-8.258H8.258c-4.561,0-8.258,3.697-8.258,8.258  v16.516c0,4.56,3.697,8.258,8.258,8.258h57.806C61.504,284.904,57.806,281.207,57.806,276.646z"/>
<g>
</g>
<g>
</g>
<g>
</g>
<g>
</g>
<g>
</g>
<g>
</g>
<g>
</g>
<g>
</g>
<g>
</g>
<g>
</g>
<g>
</g>
<g>
</g>
<g>
</g>
<g>
</g>
<g>
</g>
</svg>
