<?xml version="1.0" encoding="iso-8859-1"?>
<!-- Generator: Adobe Illustrator 19.0.0, SVG Export Plug-In . SVG Version: 6.00 Build 0)  -->
<svg xmlns="http://www.w3.org/2000/svg" xmlns:xlink="http://www.w3.org/1999/xlink" version="1.1" id="Capa_1" x="0px" y="0px" viewBox="0 0 512 512" style="enable-background:new 0 0 512 512;" xml:space="preserve">
<path style="fill:#AAE6FF;" d="M340.622,163.581l-37.111-46.389c-9.371-11.714-14.477-26.269-14.477-41.27V24.774h-66.065v51.148  c0,15.002-5.105,29.556-14.477,41.27l-37.111,46.389c-9.371,11.714-14.477,26.269-14.477,41.27v282.375  c0,13.682,11.092,24.774,24.774,24.774h148.645c13.682,0,24.774-11.092,24.774-24.774V204.851  C355.099,189.85,349.992,175.295,340.622,163.581z"/>
<path style="fill:#8CDCFF;" d="M289.034,24.774h-66.065v51.148c0,15.001-5.106,29.556-14.477,41.27l-37.111,46.389  c-9.371,11.714-14.477,26.269-14.477,41.27v282.374c0,13.682,11.092,24.774,24.774,24.774h53.677  c-6.841,0-12.387-11.092-12.387-24.774V204.851c0-15.001,2.553-29.556,7.238-41.27l18.555-46.389  c4.686-11.714,7.238-26.269,7.238-41.27v-9.858c0-9.122,7.395-16.516,16.516-16.516h16.516V24.774H289.034z"/>
<path style="fill:#FFFFFF;" d="M327.724,173.899l-19.26-24.075c-2.2-2.75-5.864-3.679-9.219-2.608  c-2.665,0.851-5.873,1.43-10.24,1.43c-16.53,0-16.53-8.258-33.061-8.258c-16.504,0-16.504,8.258-33.008,8.258  c-4.476,0-7.732-0.611-10.433-1.499c-3.265-1.073-6.819-0.005-8.966,2.679L184.279,173.9c-7.028,8.785-10.857,19.701-10.857,30.952  v282.375c0,4.561,3.697,8.258,8.258,8.258h148.645c4.561,0,8.258-3.697,8.258-8.258V204.851  C338.583,193.6,334.754,182.684,327.724,173.899z"/>
<path style="fill:#E4EAF8;" d="M222.97,204.851c0-15.001,2.553-29.556,7.238-41.27l7.244-18.111  c-3.563,1.697-7.562,3.175-14.516,3.175c-4.476,0-7.732-0.611-10.433-1.499c-3.265-1.073-6.819-0.005-8.966,2.679l-19.259,24.074  c-7.028,8.785-10.857,19.701-10.857,30.952v282.375c0,4.561,3.697,8.258,8.258,8.258h42.048c-0.461-2.595-0.758-5.347-0.758-8.258  L222.97,204.851L222.97,204.851z"/>
<rect x="156.902" y="231.23" style="fill:#D5DCED;" width="198.19" height="181.68"/>
<rect x="156.902" y="231.23" style="fill:#C7CFE2;" width="66.06" height="181.68"/>
<g>
	<path style="fill:#FFFFFF;" d="M222.97,371.613c-4.565,0-8.258-3.694-8.258-8.258v-82.581c0-4.565,3.694-8.258,8.258-8.258   s8.258,3.694,8.258,8.258v82.581C231.228,367.919,227.534,371.613,222.97,371.613z"/>
	<path style="fill:#FFFFFF;" d="M297.292,371.613h-41.29c-4.565,0-8.258-3.694-8.258-8.258v-82.581c0-4.565,3.694-8.258,8.258-8.258   c4.564,0,8.258,3.694,8.258,8.258v74.323h33.032c4.565,0,8.258,3.694,8.258,8.258S301.857,371.613,297.292,371.613z"/>
</g>
<path style="fill:#E4EAF8;" d="M289.034,33.032h-66.065c-4.561,0-8.258-3.697-8.258-8.258V8.258c0-4.561,3.697-8.258,8.258-8.258  h66.065c4.561,0,8.258,3.697,8.258,8.258v16.516C297.292,29.335,293.594,33.032,289.034,33.032z"/>
<path style="fill:#D5DCED;" d="M247.744,24.774V8.258c0-4.561,3.697-8.258,8.258-8.258H222.97c-4.561,0-8.258,3.697-8.258,8.258  v16.516c0,4.56,3.697,8.258,8.258,8.258h33.032C251.441,33.032,247.744,29.335,247.744,24.774z"/>
<path style="fill:#FFFFFF;" d="M355.099,335.161l-13.097-13.096l13.097-13.097v-23.355l-24.774,24.774v-29.613  c0-4.565-3.694-8.258-8.258-8.258c-4.564,0-8.258,3.694-8.258,8.258v82.581c0,4.565,3.694,8.258,8.258,8.258  c4.564,0,8.258-3.694,8.258-8.258v-29.613l24.774,24.774V335.161z"/>
<g>
	<path style="fill:#E4EAF8;" d="M192.752,273.008c-3.258-1.177-6.927-0.202-9.161,2.476l-26.685,32.023v25.812l24.774-29.738v59.774   c0,4.565,3.694,8.258,8.258,8.258s8.258-3.694,8.258-8.258v-82.581C198.196,277.298,196.018,274.194,192.752,273.008z"/>
	<path style="fill:#E4EAF8;" d="M214.712,280.774v82.581c0,4.565,3.694,8.258,8.258,8.258v-99.097   C218.405,272.516,214.712,276.21,214.712,280.774z"/>
</g>
<g>
</g>
<g>
</g>
<g>
</g>
<g>
</g>
<g>
</g>
<g>
</g>
<g>
</g>
<g>
</g>
<g>
</g>
<g>
</g>
<g>
</g>
<g>
</g>
<g>
</g>
<g>
</g>
<g>
</g>
</svg>
