<?xml version="1.0" encoding="iso-8859-1"?>
<!-- Generator: Adobe Illustrator 19.0.0, SVG Export Plug-In . SVG Version: 6.00 Build 0)  -->
<svg xmlns="http://www.w3.org/2000/svg" xmlns:xlink="http://www.w3.org/1999/xlink" version="1.1" id="Capa_1" x="0px" y="0px" viewBox="0 0 512 512" style="enable-background:new 0 0 512 512;" xml:space="preserve">
<path style="fill:#A0D755;" d="M409.106,49.528c-24.599-24.599-57.222-34.382-83.868-27.956  c-6.426,26.645,3.357,59.269,27.956,83.868s57.222,34.382,83.868,27.956C443.489,106.751,433.705,74.127,409.106,49.528z"/>
<path style="fill:#B4E66E;" d="M353.194,105.44c24.599,24.599,57.223,34.383,83.868,27.956c0,0-46.651-74.647-111.824-111.824  C318.812,48.218,328.596,80.841,353.194,105.44z"/>
<path style="fill:#94A74B;" d="M234.819,73.168c-0.008,0-0.016,0-0.016,0c-4.487-0.012-8.117-3.641-8.117-8.125  c0-1.243,0.206-30.744,18.298-60.479c2.335-3.824,7.33-5.059,11.174-2.72c3.836,2.335,5.059,7.338,2.724,11.178  c-15.63,25.685-15.932,51.778-15.932,52.04C242.927,69.538,239.298,73.168,234.819,73.168z"/>
<path style="fill:#C3FA78;" d="M324.805,153.671c0.546-6.441,0.408-13.078-0.488-19.84c-5.31-40.055-38.164-72.181-78.318-76.679  c-54.031-6.052-99.789,36.07-99.789,88.879c0,2.376,0.093,4.73,0.275,7.059c2.439,31.154-7.186,61.781-28.731,84.416  c-28.225,29.654-45.366,69.92-44.721,114.259c1.23,84.504,69.124,155.377,153.511,159.985  c93.971,5.131,171.777-69.55,171.777-162.403c0-43.924-17.454-83.706-45.778-112.924  C331.246,214.455,322.219,184.158,324.805,153.671z"/>
<path style="fill:#B4E66E;" d="M331.219,467.143c-64.828,5.078-126.536-55.334-139.488-136.341  c-6.796-42.504,0.514-83.101,17.761-114.755c13.165-24.162,16.129-54.656,9.845-84.297c-0.47-2.216-0.875-4.466-1.213-6.748  c-3.83-25.863,1.824-50.355,13.813-68.224c-47.66,1.974-85.726,41.109-85.726,89.254c0,2.376,0.093,4.73,0.275,7.059  c2.439,31.154-7.186,61.781-28.731,84.416c-28.225,29.654-45.366,69.92-44.72,114.259c1.23,84.504,69.123,155.377,153.51,159.985  c49.128,2.683,93.81-16.476,125.294-48.615C345.195,465.096,338.362,466.583,331.219,467.143z"/>
<path style="fill:#87BE4B;" d="M388.266,82.063c-2.478,0-4.916-1.124-6.52-3.256C297.362-33.863,149.45,39.748,147.973,40.514  c-4.019,2.021-8.903,0.441-10.936-3.554c-2.041-3.999-0.453-8.899,3.55-10.94c1.604-0.818,161.676-80.461,254.184,43.034  c2.692,3.598,1.962,8.693-1.636,11.385C391.674,81.535,389.958,82.063,388.266,82.063z"/>
<path style="fill:#94A74B;" d="M235.668,491.669c-2.899,0-5.774-0.087-8.633-0.266c-4.487-0.278-7.894-4.138-7.616-8.621  c0.286-4.475,4.17-7.93,8.617-7.612c5.051,0.31,10.213,0.31,15.265,0c4.455-0.314,8.339,3.137,8.617,7.612  c0.278,4.483-3.129,8.343-7.616,8.621C241.442,491.581,238.567,491.669,235.668,491.669z"/>
<g>
</g>
<g>
</g>
<g>
</g>
<g>
</g>
<g>
</g>
<g>
</g>
<g>
</g>
<g>
</g>
<g>
</g>
<g>
</g>
<g>
</g>
<g>
</g>
<g>
</g>
<g>
</g>
<g>
</g>
</svg>
