<?xml version="1.0" encoding="iso-8859-1"?>
<!-- Generator: Adobe Illustrator 19.0.0, SVG Export Plug-In . SVG Version: 6.00 Build 0)  -->
<svg xmlns="http://www.w3.org/2000/svg" xmlns:xlink="http://www.w3.org/1999/xlink" version="1.1" id="Capa_1" x="0px" y="0px" viewBox="0 0 512.001 512.001" style="enable-background:new 0 0 512.001 512.001;" xml:space="preserve">
<path style="fill:#FFDC64;" d="M165.216,231.242c0,86.416,25.124,164.182,65.211,218.46c12.587,17.043,38.547,17.043,51.134,0  c40.088-54.278,65.211-132.045,65.211-218.46S321.65,67.06,281.562,12.782c-12.587-17.043-38.547-17.043-51.134,0  C190.34,67.06,165.216,144.827,165.216,231.242z"/>
<path style="fill:#FFC850;" d="M288.196,415.789c-40.087-58.112-65.211-141.373-65.211-233.893  c0-67.52,13.426-130.055,36.239-181.536c-10.674-1.066-21.794,2.943-28.795,12.422c-40.087,54.278-65.211,132.045-65.211,218.46  s25.124,164.182,65.211,218.46c12.587,17.042,38.548,17.042,51.135,0c5.772-7.816,11.194-16.172,16.315-24.917  C294.243,422.554,290.876,419.674,288.196,415.789z"/>
<path style="fill:#FFDC64;" d="M239.49,330.443c-4.562,0-8.253-3.695-8.253-8.253v-16.505c0-4.557,3.691-8.253,8.253-8.253  c4.561,0,8.253,3.695,8.253,8.253v16.505C247.743,326.748,244.051,330.443,239.49,330.443z"/>
<g>
	<path style="fill:#FFF082;" d="M272.5,330.443c-4.562,0-8.253-3.695-8.253-8.253v-16.505c0-4.557,3.691-8.253,8.253-8.253   c4.561,0,8.253,3.695,8.253,8.253v16.505C280.753,326.748,277.062,330.443,272.5,330.443z"/>
	<path style="fill:#FFF082;" d="M305.511,330.443c-4.561,0-8.253-3.695-8.253-8.253v-16.505c0-4.557,3.691-8.253,8.253-8.253   s8.253,3.695,8.253,8.253v16.505C313.763,326.748,310.072,330.443,305.511,330.443z"/>
</g>
<g>
	<path style="fill:#FFDC64;" d="M206.48,330.443c-4.562,0-8.253-3.695-8.253-8.253v-16.505c0-4.557,3.691-8.253,8.253-8.253   c4.561,0,8.253,3.695,8.253,8.253v16.505C214.732,326.748,211.041,330.443,206.48,330.443z"/>
	<path style="fill:#FFDC64;" d="M239.49,429.474c-4.562,0-8.253-3.695-8.253-8.253v-16.505c0-4.557,3.691-8.253,8.253-8.253   c4.561,0,8.253,3.695,8.253,8.253v16.505C247.743,425.779,244.051,429.474,239.49,429.474z"/>
	<path style="fill:#FFDC64;" d="M272.5,429.474c-4.562,0-8.253-3.695-8.253-8.253v-16.505c0-4.557,3.691-8.253,8.253-8.253   c4.561,0,8.253,3.695,8.253,8.253v16.505C280.753,425.779,277.062,429.474,272.5,429.474z"/>
</g>
<g>
	<path style="fill:#FFF082;" d="M239.49,231.411c-4.562,0-8.253-3.695-8.253-8.253v-16.505c0-4.557,3.691-8.253,8.253-8.253   c4.561,0,8.253,3.695,8.253,8.253v16.505C247.743,227.716,244.051,231.411,239.49,231.411z"/>
	<path style="fill:#FFF082;" d="M272.5,231.411c-4.562,0-8.253-3.695-8.253-8.253v-16.505c0-4.557,3.691-8.253,8.253-8.253   c4.561,0,8.253,3.695,8.253,8.253v16.505C280.753,227.716,277.062,231.411,272.5,231.411z"/>
	<path style="fill:#FFF082;" d="M305.511,231.411c-4.561,0-8.253-3.695-8.253-8.253v-16.505c0-4.557,3.691-8.253,8.253-8.253   s8.253,3.695,8.253,8.253v16.505C313.763,227.716,310.072,231.411,305.511,231.411z"/>
</g>
<path style="fill:#FFDC64;" d="M206.48,231.411c-4.562,0-8.253-3.695-8.253-8.253v-16.505c0-4.557,3.691-8.253,8.253-8.253  c4.561,0,8.253,3.695,8.253,8.253v16.505C214.732,227.716,211.041,231.411,206.48,231.411z"/>
<g>
	<path style="fill:#FFF082;" d="M239.49,132.38c-4.562,0-8.253-3.695-8.253-8.253v-16.505c0-4.557,3.691-8.253,8.253-8.253   c4.561,0,8.253,3.695,8.253,8.253v16.505C247.743,128.685,244.051,132.38,239.49,132.38z"/>
	<path style="fill:#FFF082;" d="M272.5,132.38c-4.562,0-8.253-3.695-8.253-8.253v-16.505c0-4.557,3.691-8.253,8.253-8.253   c4.561,0,8.253,3.695,8.253,8.253v16.505C280.753,128.685,277.062,132.38,272.5,132.38z"/>
	<path style="fill:#FFF082;" d="M305.511,132.38c-4.561,0-8.253-3.695-8.253-8.253v-16.505c0-4.557,3.691-8.253,8.253-8.253   s8.253,3.695,8.253,8.253v16.505C313.763,128.685,310.072,132.38,305.511,132.38z"/>
</g>
<path style="fill:#FFDC64;" d="M206.48,132.38c-4.562,0-8.253-3.695-8.253-8.253v-16.505c0-4.557,3.691-8.253,8.253-8.253  c4.561,0,8.253,3.695,8.253,8.253v16.505C214.732,128.685,211.041,132.38,206.48,132.38z"/>
<g>
	<path style="fill:#FFF082;" d="M255.995,280.927c-4.561,0-8.253-3.695-8.253-8.253v-16.505c0-4.557,3.691-8.253,8.253-8.253   c4.562,0,8.253,3.695,8.253,8.253v16.505C264.248,277.232,260.557,280.927,255.995,280.927z"/>
	<path style="fill:#FFF082;" d="M289.006,280.927c-4.561,0-8.253-3.695-8.253-8.253v-16.505c0-4.557,3.691-8.253,8.253-8.253   c4.562,0,8.253,3.695,8.253,8.253v16.505C297.258,277.232,293.567,280.927,289.006,280.927z"/>
</g>
<path style="fill:#FFDC64;" d="M189.974,280.927c-4.562,0-8.253-3.695-8.253-8.253v-16.505c0-4.557,3.691-8.253,8.253-8.253  c4.561,0,8.253,3.695,8.253,8.253v16.505C198.227,277.232,194.536,280.927,189.974,280.927z"/>
<path style="fill:#FFF082;" d="M322.016,280.927c-4.561,0-8.253-3.695-8.253-8.253v-16.505c0-4.557,3.691-8.253,8.253-8.253  s8.253,3.695,8.253,8.253v16.505C330.269,277.232,326.578,280.927,322.016,280.927z"/>
<g>
	<path style="fill:#FFDC64;" d="M222.985,280.927c-4.561,0-8.253-3.695-8.253-8.253v-16.505c0-4.557,3.691-8.253,8.253-8.253   c4.562,0,8.253,3.695,8.253,8.253v16.505C231.237,277.232,227.546,280.927,222.985,280.927z"/>
	<path style="fill:#FFDC64;" d="M255.995,379.958c-4.561,0-8.253-3.695-8.253-8.253V355.2c0-4.557,3.691-8.253,8.253-8.253   c4.562,0,8.253,3.695,8.253,8.253v16.505C264.248,376.263,260.557,379.958,255.995,379.958z"/>
</g>
<path style="fill:#FFF082;" d="M289.006,379.958c-4.561,0-8.253-3.695-8.253-8.253V355.2c0-4.557,3.691-8.253,8.253-8.253  c4.562,0,8.253,3.695,8.253,8.253v16.505C297.258,376.263,293.567,379.958,289.006,379.958z"/>
<path style="fill:#FFDC64;" d="M222.985,379.958c-4.561,0-8.253-3.695-8.253-8.253V355.2c0-4.557,3.691-8.253,8.253-8.253  c4.562,0,8.253,3.695,8.253,8.253v16.505C231.237,376.263,227.546,379.958,222.985,379.958z"/>
<g>
	<path style="fill:#FFF082;" d="M255.995,181.896c-4.561,0-8.253-3.695-8.253-8.253v-16.505c0-4.557,3.691-8.253,8.253-8.253   c4.562,0,8.253,3.695,8.253,8.253v16.505C264.248,178.201,260.557,181.896,255.995,181.896z"/>
	<path style="fill:#FFF082;" d="M289.006,181.896c-4.561,0-8.253-3.695-8.253-8.253v-16.505c0-4.557,3.691-8.253,8.253-8.253   c4.562,0,8.253,3.695,8.253,8.253v16.505C297.258,178.201,293.567,181.896,289.006,181.896z"/>
</g>
<path style="fill:#FFDC64;" d="M189.974,181.896c-4.562,0-8.253-3.695-8.253-8.253v-16.505c0-4.557,3.691-8.253,8.253-8.253  c4.561,0,8.253,3.695,8.253,8.253v16.505C198.227,178.201,194.536,181.896,189.974,181.896z"/>
<path style="fill:#FFF082;" d="M322.016,181.896c-4.561,0-8.253-3.695-8.253-8.253v-16.505c0-4.557,3.691-8.253,8.253-8.253  s8.253,3.695,8.253,8.253v16.505C330.269,178.201,326.578,181.896,322.016,181.896z"/>
<path style="fill:#FFDC64;" d="M222.985,181.896c-4.561,0-8.253-3.695-8.253-8.253v-16.505c0-4.557,3.691-8.253,8.253-8.253  c4.562,0,8.253,3.695,8.253,8.253v16.505C231.237,178.201,227.546,181.896,222.985,181.896z"/>
<g>
	<path style="fill:#FFF082;" d="M255.995,82.864c-4.561,0-8.253-3.695-8.253-8.253V58.107c0-4.557,3.691-8.253,8.253-8.253   c4.562,0,8.253,3.695,8.253,8.253v16.505C264.248,79.169,260.557,82.864,255.995,82.864z"/>
	<path style="fill:#FFF082;" d="M289.006,82.864c-4.561,0-8.253-3.695-8.253-8.253V58.107c0-4.557,3.691-8.253,8.253-8.253   c4.562,0,8.253,3.695,8.253,8.253v16.505C297.258,79.169,293.567,82.864,289.006,82.864z"/>
</g>
<g>
	<path style="fill:#FFDC64;" d="M222.985,82.864c-4.561,0-8.253-3.695-8.253-8.253V58.107c0-4.557,3.691-8.253,8.253-8.253   c4.562,0,8.253,3.695,8.253,8.253v16.505C231.237,79.169,227.546,82.864,222.985,82.864z"/>
	<path style="fill:#FFDC64;" d="M173.469,231.411c4.562,0,8.253-3.695,8.253-8.253v-16.505c0-4.557-3.691-8.253-8.253-8.253   c-3.223,0-5.938,1.894-7.297,4.585c-0.442,6.879-0.704,13.832-0.821,20.84C165.707,228.054,169.144,231.411,173.469,231.411z"/>
</g>
<g>
	<path style="fill:#FFF082;" d="M345.818,202.985c-1.359-2.69-4.074-4.584-7.297-4.584c-4.561,0-8.253,3.695-8.253,8.253v16.505   c0,4.557,3.691,8.253,8.253,8.253c4.325,0,7.762-3.357,8.118-7.585C346.522,216.818,346.261,209.865,345.818,202.985z"/>
	<path style="fill:#FFF082;" d="M267.384,2.27c-1.868,1.513-3.136,3.729-3.136,6.321v16.505c0,4.557,3.691,8.253,8.253,8.253   c4.561,0,8.253-3.695,8.253-8.253V11.927C277.1,7.351,272.46,4.19,267.384,2.27z"/>
</g>
<path style="fill:#FFDC64;" d="M239.49,33.349c4.561,0,8.253-3.695,8.253-8.253V8.591c0-2.612-1.289-4.839-3.182-6.352  c-5.057,1.864-9.674,5.046-13.323,9.592v13.265C231.237,29.654,234.928,33.349,239.49,33.349z"/>
<g>
	<path style="fill:#FFF082;" d="M231.237,173.643v-16.505c0-4.133-3.089-7.41-7.056-8.011c-0.706,10.791-1.196,21.682-1.196,32.769   C227.546,181.896,231.237,178.201,231.237,173.643z"/>
	<path style="fill:#FFF082;" d="M227.565,249.487c1.037,7.534,2.302,14.93,3.672,22.254v-15.572   C231.237,253.345,229.729,250.975,227.565,249.487z"/>
	<path style="fill:#FFF082;" d="M247.743,305.685c0-4.557-3.691-8.253-8.253-8.253c-0.92,0-1.766,0.246-2.592,0.523   c2.546,10.208,5.42,20.156,8.599,29.817c1.368-1.473,2.245-3.414,2.245-5.583v-16.504H247.743z"/>
	<path style="fill:#FFF082;" d="M252.679,347.666c3.471,8.914,7.209,17.534,11.206,25.84c0.137-0.597,0.363-1.162,0.363-1.801V355.2   c0-4.557-3.691-8.253-8.253-8.253C254.81,346.948,253.697,347.217,252.679,347.666z"/>
</g>
<path style="fill:#A0D755;" d="M277.004,454.516c-3.406,3.006-7.332,5.148-11.48,6.43c-5.416,1.674-11.284-0.178-14.976-4.479  c-18.299-21.319-78.866-100.951-114.486-256.909c-0.93-4.07-6.786-4.006-7.531,0.102c-9.818,54.095-28.478,215.471,88.207,254.857  h-0.052c13.53,4.571,22.804,17.055,22.804,31.336v17.895c0,4.558,3.695,8.253,8.253,8.253h16.505c4.558,0,8.253-3.695,8.253-8.253  v-17.894c0-14.283,9.278-26.766,22.81-31.338L277.004,454.516L277.004,454.516z"/>
<g>
	<path style="fill:#B4E66E;" d="M262.395,455.341c19.43-22.977,78.542-102.57,113.536-255.793c0.93-4.07,6.784-3.994,7.53,0.115   c10.574,58.268,31.446,241.019-117.626,261.715C262.454,461.848,260.191,457.948,262.395,455.341z"/>
	<path style="fill:#B4E66E;" d="M136.05,199.506c-0.927-4.059-6.772-3.964-7.516,0.132c-2.483,13.678-5.527,34.237-6.809,57.94   c7.348,22.679,24.281,68.605,62.667,119.866c4.863,6.495,14.916,0.226,11.283-7.029C174.935,328.995,152.752,272.65,136.05,199.506   z"/>
</g>
<g>
</g>
<g>
</g>
<g>
</g>
<g>
</g>
<g>
</g>
<g>
</g>
<g>
</g>
<g>
</g>
<g>
</g>
<g>
</g>
<g>
</g>
<g>
</g>
<g>
</g>
<g>
</g>
<g>
</g>
</svg>
