<?xml version="1.0" encoding="iso-8859-1"?>
<!-- Generator: Adobe Illustrator 19.0.0, SVG Export Plug-In . SVG Version: 6.00 Build 0)  -->
<svg xmlns="http://www.w3.org/2000/svg" xmlns:xlink="http://www.w3.org/1999/xlink" version="1.1" id="Capa_1" x="0px" y="0px" viewBox="0 0 512 512" style="enable-background:new 0 0 512 512;" xml:space="preserve">
<path style="fill:#FFDC64;" d="M498.2,220.667l-85.296-14.216l-41.29-107.355h-99.097c-9.122,0-16.516,7.395-16.516,16.516v90.89  H8.258C3.697,206.501,0,210.199,0,214.76v115.613c0,9.122,7.396,16.517,16.518,16.516l487.225-0.051c4.56,0,8.257-3.698,8.257-8.258  V236.958C512,228.883,506.163,221.993,498.2,220.667z"/>
<path style="fill:#FFC850;" d="M0,305.598h512v33.032c0,4.561-3.697,8.258-8.258,8.258H16.516C7.395,346.889,0,339.493,0,330.371  V305.598z"/>
<g>
	<path style="fill:#E1A546;" d="M181.147,346.871c-4.096-37.145-35.555-66.047-73.792-66.047c-38.241,0-69.705,28.911-73.794,66.063   L181.147,346.871z"/>
	<path style="fill:#E1A546;" d="M503.211,346.871c-4.096-37.145-35.555-66.047-73.792-66.047c-38.241,0-69.705,28.911-73.794,66.063   L503.211,346.871z"/>
</g>
<path style="fill:#FFF082;" d="M289.032,239.534H512v-2.576c0-8.074-5.837-14.964-13.801-16.291l-84.99-14.165H289.032  c-9.122,0-16.516,7.395-16.516,16.516l0,0C272.516,232.139,279.911,239.534,289.032,239.534z"/>
<circle style="fill:#5B5D6E;" cx="429.42" cy="355.099" r="57.806"/>
<circle style="fill:#C7CFE2;" cx="429.42" cy="355.099" r="32.981"/>
<circle style="fill:#AFB9D2;" cx="429.42" cy="355.099" r="16.465"/>
<circle style="fill:#5B5D6E;" cx="107.36" cy="355.099" r="57.806"/>
<circle style="fill:#C7CFE2;" cx="107.36" cy="355.099" r="32.981"/>
<path style="fill:#FFFABE;" d="M478.968,247.792v16.516c0,9.122,7.395,16.516,16.516,16.516H512v-41.29h-24.774  C482.665,239.534,478.968,243.23,478.968,247.792z"/>
<circle style="fill:#AFB9D2;" cx="107.36" cy="355.099" r="16.465"/>
<path style="fill:#FFF082;" d="M379.871,115.663h-99.097c-4.565,0-8.258-3.698-8.258-8.258c0-4.56,3.694-8.258,8.258-8.258h99.097  c4.565,0,8.258,3.698,8.258,8.258C388.129,111.965,384.435,115.663,379.871,115.663z"/>
<path style="fill:#00D7FF;" d="M313.806,206.451h99.097l-28.586-74.323h-78.769c-4.561,0-8.258,3.697-8.258,8.258v49.548  C297.29,199.056,304.685,206.451,313.806,206.451z"/>
<path style="fill:#00C3FF;" d="M390.69,148.695l-6.353-16.516h-79.041c-4.437,0.141-8.006,3.736-8.006,8.207v8.309H390.69z"/>
<path style="fill:#E1A546;" d="M244.052,346.865l28.199-0.003c-8.996-0.145-16.251-7.459-16.251-16.489V206.501h-16.516v123.871  C239.484,336.41,241.223,341.995,244.052,346.865z"/>
<path style="fill:#FFF082;" d="M214.71,239.534H24.774c-4.561,0-8.258-3.697-8.258-8.258l0,0c0-4.561,3.697-8.258,8.258-8.258  H214.71c4.561,0,8.258,3.697,8.258,8.258l0,0C222.968,235.836,219.27,239.534,214.71,239.534z"/>
<g>
</g>
<g>
</g>
<g>
</g>
<g>
</g>
<g>
</g>
<g>
</g>
<g>
</g>
<g>
</g>
<g>
</g>
<g>
</g>
<g>
</g>
<g>
</g>
<g>
</g>
<g>
</g>
<g>
</g>
</svg>
