<?xml version="1.0" encoding="iso-8859-1"?>
<!-- Generator: Adobe Illustrator 19.0.0, SVG Export Plug-In . SVG Version: 6.00 Build 0)  -->
<svg xmlns="http://www.w3.org/2000/svg" xmlns:xlink="http://www.w3.org/1999/xlink" version="1.1" id="Capa_1" x="0px" y="0px" viewBox="0 0 512 512" style="enable-background:new 0 0 512 512;" xml:space="preserve">
<path style="fill:#87BE4B;" d="M24.381,296.685h48.762v-48.762H8.127v32.508C8.127,289.408,15.404,296.685,24.381,296.685z"/>
<path style="fill:#A0D755;" d="M73.143,288.506H24.381c-4.484,0-8.127-3.647-8.127-8.127v-65.016c0-4.488-3.635-8.127-8.127-8.127  S0,210.874,0,215.363v65.016c0,13.444,10.937,24.381,24.381,24.381h48.762C73.143,304.761,73.143,288.506,73.143,288.506z"/>
<path style="fill:#FFDC64;" d="M276.317,215.414h-162.54c-13.465,0-24.381-10.916-24.381-24.381v-89.397h211.302v89.397  C300.698,204.498,289.783,215.414,276.317,215.414z"/>
<path style="fill:#A0D755;" d="M269.585,257.394c-6.096-6.096-14.365-9.521-22.987-9.521l-165.328,0.05v81.27h107.284v-48.812  c30.176,0,59.116,11.987,80.453,33.325l39.843,39.843h56.889L269.585,257.394z"/>
<g>
	<path style="fill:#87BE4B;" d="M274.619,319.316c-15.768-32.599-49.058-55.14-87.698-55.14c-42.435,0-78.435,27.165-91.82,65.016   h93.454V280.38c30.176,0,59.116,11.987,80.453,33.325L274.619,319.316z"/>
	<rect x="422.6" y="304.81" style="fill:#87BE4B;" width="16.254" height="48.762"/>
</g>
<path style="fill:#B4E66E;" d="M503.873,377.954H308.825c-4.488,0-8.127-3.639-8.127-8.127v-16.254c0-4.488,3.639-8.127,8.127-8.127  h195.048c4.488,0,8.127,3.639,8.127,8.127v16.254C512,374.316,508.361,377.954,503.873,377.954z"/>
<path style="fill:#A0D755;" d="M367.884,377.954h125.692c-3.291-12.791-10.349-24.039-19.961-32.508h-85.771  C378.233,353.915,371.175,365.164,367.884,377.954z"/>
<circle style="fill:#5B5D6E;" cx="430.73" cy="394.16" r="48.762"/>
<circle style="fill:#464655;" cx="430.73" cy="394.16" r="24.331"/>
<circle style="fill:#5B5D6E;" cx="186.92" cy="361.65" r="81.27"/>
<circle style="fill:#464655;" cx="186.92" cy="361.65" r="64.966"/>
<path style="fill:#B4E66E;" d="M430.73,247.872c8.977,0,16.254-7.277,16.254-16.254v-8.127c0-4.488-3.639-8.127-8.127-8.127H65.016  c-4.488,0-8.127,3.639-8.127,8.127v97.524c0,4.488,3.639,8.127,8.127,8.127H81.27c4.488,0,8.127-3.639,8.127-8.127v-17.648  c0-4.311,1.712-8.445,4.761-11.493l39.241-39.241c3.048-3.048,7.182-4.761,11.493-4.761L430.73,247.872L430.73,247.872z"/>
<path style="fill:#7F8499;" d="M308.825,69.079H81.27c-4.489,0-8.127,3.638-8.127,8.127V93.46c0,4.489,3.638,8.127,8.127,8.127  h227.556c4.489,0,8.127-3.638,8.127-8.127V77.206C316.952,72.717,313.314,69.079,308.825,69.079z"/>
<circle style="fill:#A0D755;" cx="430.73" cy="296.63" r="16.254"/>
<g>
	<path style="fill:#707487;" d="M187,321.014c-4.492,0-8.167-3.639-8.167-8.127s3.595-8.127,8.087-8.127H187   c4.492,0,8.127,3.639,8.127,8.127S191.492,321.014,187,321.014z"/>
	<path style="fill:#707487;" d="M187,418.538c-4.492,0-8.167-3.639-8.167-8.127s3.595-8.127,8.087-8.127H187   c4.492,0,8.127,3.639,8.127,8.127S191.492,418.538,187,418.538z"/>
	<path style="fill:#707487;" d="M235.722,369.82c-4.492,0-8.127-3.639-8.127-8.127s3.635-8.167,8.127-8.167s8.127,3.595,8.127,8.083   v0.083C243.849,366.181,240.214,369.82,235.722,369.82z"/>
	<path style="fill:#707487;" d="M138.198,369.82c-4.492,0-8.127-3.639-8.127-8.127s3.635-8.167,8.127-8.167s8.127,3.595,8.127,8.083   v0.083C146.325,366.181,142.69,369.82,138.198,369.82z"/>
	<path style="fill:#707487;" d="M221.468,335.328c-2.175,0-4.341-0.865-5.944-2.583c-3.056-3.282-2.913-8.452,0.373-11.516   c3.278-3.064,8.405-2.909,11.46,0.369l0.056,0.06c3.056,3.278,2.881,8.421-0.397,11.484   C225.444,334.605,223.452,335.328,221.468,335.328z"/>
	<path style="fill:#707487;" d="M152.508,404.288c-2.175,0-4.341-0.865-5.944-2.583c-3.056-3.282-2.913-8.452,0.373-11.516   s8.397-2.913,11.46,0.369l0.056,0.06c3.056,3.278,2.881,8.421-0.397,11.484C156.484,403.566,154.492,404.288,152.508,404.288z"/>
	<path style="fill:#707487;" d="M221.413,404.288c-1.984,0-3.976-0.722-5.548-2.186c-3.278-3.064-3.452-8.206-0.397-11.484   c3.071-3.282,8.238-3.48,11.516-0.429c3.286,3.063,3.484,8.179,0.429,11.456l-0.056,0.06   C225.754,403.423,223.587,404.288,221.413,404.288z"/>
	<path style="fill:#707487;" d="M152.452,335.328c-1.984,0-3.976-0.722-5.548-2.187c-3.278-3.063-3.452-8.206-0.397-11.484   c3.071-3.278,8.246-3.484,11.516-0.429c3.286,3.063,3.484,8.179,0.429,11.456l-0.056,0.06   C156.794,334.463,154.627,335.328,152.452,335.328z"/>
</g>
<circle style="fill:#5B5D6E;" cx="186.92" cy="361.65" r="16.204"/>
<path style="fill:#FFC850;" d="M121.905,207.287v-73.143c0-8.977,7.277-16.254,16.254-16.254h162.54v-16.254H89.397v89.397  c0,13.465,10.916,24.381,24.381,24.381h9.62C122.49,212.861,121.905,210.152,121.905,207.287z"/>
<path style="fill:#707487;" d="M105.651,85.383c-4.489,0-8.127-3.638-8.127-8.127v-8.177H81.27c-4.489,0-8.127,3.638-8.127,8.127  V93.46c0,4.489,3.638,8.127,8.127,8.127h227.556c4.489,0,8.127-3.638,8.127-8.127v-8.077  C316.953,85.382,105.651,85.382,105.651,85.383z"/>
<g>
</g>
<g>
</g>
<g>
</g>
<g>
</g>
<g>
</g>
<g>
</g>
<g>
</g>
<g>
</g>
<g>
</g>
<g>
</g>
<g>
</g>
<g>
</g>
<g>
</g>
<g>
</g>
<g>
</g>
</svg>
