<?xml version="1.0" encoding="iso-8859-1"?>
<!-- Generator: Adobe Illustrator 19.0.0, SVG Export Plug-In . SVG Version: 6.00 Build 0)  -->
<svg xmlns="http://www.w3.org/2000/svg" xmlns:xlink="http://www.w3.org/1999/xlink" version="1.1" id="Capa_1" x="0px" y="0px" viewBox="0 0 512 512" style="enable-background:new 0 0 512 512;" xml:space="preserve">
<path style="fill:#B4E66E;" d="M444.385,230.272l-114.063-32.08V37.211H74.373v330.323h206.401v8.258  c0,13.682,11.092,24.774,24.774,24.774h156.903V254.121C462.452,243.022,455.07,233.277,444.385,230.272z"/>
<path style="fill:#A0D755;" d="M330.323,260.18v41.238c0,13.682-11.092,24.774-24.774,24.774h-24.774v16.516h49.548v57.808v0.051  h132.129V268.438c0-13.682-11.092-24.774-24.774-24.774h-90.839C337.717,243.663,330.323,251.057,330.323,260.18z"/>
<path style="fill:#464655;" d="M280.723,359.225c0-86.627-70.225-156.852-156.852-156.852c-17.315,0-33.923,2.915-49.497,8.097  v157.065h205.93C280.449,364.764,280.723,362.03,280.723,359.225z"/>
<path style="fill:#87BE4B;" d="M421.161,284.953c-38.32,0-71.893,20.117-90.867,50.34c-2.957,4.709-8.211,7.466-13.772,7.466  h-35.749v33.032c0,13.682,11.092,24.774,24.774,24.774H462.45V293.211C449.739,287.905,435.797,284.953,421.161,284.953z"/>
<path style="fill:#00D7FF;" d="M144.639,131.126l10.261,2.565c5.212,1.303,10.261-2.639,10.261-8.011v-47.23  c0-4.561-3.697-8.258-8.258-8.258h-16.516c-4.561,0-8.258,3.697-8.258,8.258v36.653  C132.129,122.682,137.287,129.288,144.639,131.126z"/>
<path style="fill:#959CB5;" d="M363.355,284.953c-4.565,0-8.258-3.698-8.258-8.258V126.582c0-6.617,2.581-12.839,7.258-17.516  l11.677-11.681c3.226-3.226,8.452-3.226,11.677,0c3.226,3.222,3.226,8.452,0,11.677l-11.677,11.681  c-1.54,1.54-2.419,3.665-2.419,5.839v150.113C371.613,281.255,367.919,284.953,363.355,284.953z"/>
<circle style="fill:#5B5D6E;" cx="123.87" cy="359.229" r="123.87"/>
<circle style="fill:#464655;" cx="123.87" cy="359.229" r="74.27"/>
<circle style="fill:#FFDC64;" cx="123.87" cy="359.229" r="49.5"/>
<circle style="fill:#FFC850;" cx="123.87" cy="359.229" r="16.465"/>
<path style="fill:#A0D755;" d="M128.968,194.191c-4.363-0.139-8.692-0.047-12.993,0.199c-4.697,0.269-8.62-3.521-8.62-8.225V61.933  c0-9.122,7.395-16.516,16.516-16.516h214.71c4.565,0,8.258-3.698,8.258-8.258s-3.694-8.258-8.258-8.258h-256  c-18.243,0-33.032,14.789-33.032,33.032v149.813c-13.949,7.061-26.983,16.111-38.685,27.103c-3.323,3.125-3.492,8.351-0.363,11.673  c3.121,3.327,8.347,3.488,11.669,0.367c28.863-27.105,66.5-41.331,106.298-40.19c79.403,2.395,144,70.738,144,152.351v12.742  c0,18.243,14.789,33.032,33.032,33.032h41.339v-16.516H305.5c-9.122,0-16.516-7.395-16.516-16.516v-0.052h57.855v-16.516h-58.044  C286.788,270.488,215.944,196.81,128.968,194.191z"/>
<circle style="fill:#5B5D6E;" cx="421.16" cy="392.259" r="90.84"/>
<circle style="fill:#464655;" cx="421.16" cy="392.259" r="49.5"/>
<circle style="fill:#FFDC64;" cx="421.16" cy="392.259" r="24.723"/>
<path style="fill:#00D7FF;" d="M216.26,166.112l114.062,32.08v-128h-123.87c-4.561,0-8.258,3.697-8.258,8.258v63.813  C198.194,153.363,205.576,163.107,216.26,166.112z"/>
<g>
	<path style="fill:#00C3FF;" d="M198.194,78.451v16.567h132.129V70.243H206.199C201.762,70.384,198.194,73.979,198.194,78.451z"/>
	<path style="fill:#00C3FF;" d="M132.129,78.451v16.567h33.032V78.501c0-4.561-3.697-8.258-8.258-8.258h-16.769   C135.698,70.384,132.129,73.979,132.129,78.451z"/>
</g>
<path style="fill:#7F8499;" d="M371.613,185.857h-16.516c-4.561,0-8.258-3.697-8.258-8.258v-33.032c0-4.561,3.697-8.258,8.258-8.258  h16.516c4.561,0,8.258,3.697,8.258,8.258v33.032C379.871,182.159,376.174,185.857,371.613,185.857z"/>
<g>
</g>
<g>
</g>
<g>
</g>
<g>
</g>
<g>
</g>
<g>
</g>
<g>
</g>
<g>
</g>
<g>
</g>
<g>
</g>
<g>
</g>
<g>
</g>
<g>
</g>
<g>
</g>
<g>
</g>
</svg>
