<?xml version="1.0" encoding="iso-8859-1"?>
<!-- Generator: Adobe Illustrator 19.0.0, SVG Export Plug-In . SVG Version: 6.00 Build 0)  -->
<svg xmlns="http://www.w3.org/2000/svg" xmlns:xlink="http://www.w3.org/1999/xlink" version="1.1" id="Capa_1" x="0px" y="0px" viewBox="0 0 512 512" style="enable-background:new 0 0 512 512;" xml:space="preserve">
<circle style="fill:#5B5D6E;" cx="424" cy="327.98" r="56"/>
<path style="fill:#464655;" d="M424,328.025l-51.493-22.068c-2.895,6.76-4.507,14.2-4.507,22.019c0,0.701,0.08,1.381,0.105,2.076  L424,344.025V328.025z"/>
<path style="fill:#5B5D6E;" d="M285.896,258.757l-48.834,104.651c-1.313,2.805-4.156,4.617-7.25,4.617H224V227.203l-16-8.157  v148.979c0,8.824,7.18,16,16,16h5.813c9.281,0,17.82-5.434,21.75-13.848l48.598-104.148L285.896,258.757z"/>
<g>
	<polygon style="fill:#464655;" points="208,225.084 208,243.046 224,251.203 224,233.241  "/>
	<polygon style="fill:#464655;" points="297.885,270.907 283.62,263.635 276.849,278.146 291.114,285.417  "/>
</g>
<path style="fill:#FFDC64;" d="M175.511,128.025C166.906,128.29,160,135.307,160,143.976v34.865c0,9.023,5.061,17.284,13.1,21.382  l144.605,73.72c19.425,9.903,43.084,5.469,57.606-10.795l120.646-135.123L175.511,128.025L175.511,128.025z"/>
<path style="fill:#FFC850;" d="M504,128.025l-327.998-0.049c-8.837-0.001-16.002,7.163-16.002,16v34.865  c0,9.023,5.061,17.284,13.1,21.382l144.605,73.72c16.026,8.17,34.86,6.443,49.142-3.497L229.1,200.223  c-8.039-4.098-13.1-12.359-13.1-21.382v-18.816c0-8.837,7.163-16,16-16h272c4.422,0,8-3.582,8-8S508.422,128.025,504,128.025z"/>
<circle style="fill:#FFDC64;" cx="424" cy="327.98" r="39.951"/>
<circle style="fill:#FFC850;" cx="424" cy="327.98" r="23.951"/>
<path style="fill:#5B5D6E;" d="M423.688,335.975c-1.219,0-2.461-0.281-3.625-0.871L50.289,146.596  c-3.359-1.715-7.133-2.621-10.898-2.621H8c-4.422,0-8-3.582-8-8s3.578-8,8-8h31.391c6.281,0,12.563,1.508,18.164,4.363  l369.773,188.508c3.938,2.008,5.5,6.824,3.492,10.762C429.406,334.381,426.602,335.975,423.688,335.975z"/>
<path style="fill:#FFC850;" d="M40,144.025H8c-4.418,0-8-3.582-8-8l0,0c0-4.418,3.582-8,8-8h32V144.025z"/>
<g>
</g>
<g>
</g>
<g>
</g>
<g>
</g>
<g>
</g>
<g>
</g>
<g>
</g>
<g>
</g>
<g>
</g>
<g>
</g>
<g>
</g>
<g>
</g>
<g>
</g>
<g>
</g>
<g>
</g>
</svg>
