<?xml version="1.0" encoding="iso-8859-1"?>
<!-- Generator: Adobe Illustrator 19.0.0, SVG Export Plug-In . SVG Version: 6.00 Build 0)  -->
<svg xmlns="http://www.w3.org/2000/svg" xmlns:xlink="http://www.w3.org/1999/xlink" version="1.1" id="Capa_1" x="0px" y="0px" viewBox="0 0 512 512" style="enable-background:new 0 0 512 512;" xml:space="preserve">
<g>
	<rect x="181.68" y="72.26" style="fill:#9B735A;" width="148.65" height="20.645"/>
	<rect x="181.68" y="14.452" style="fill:#9B735A;" width="148.65" height="20.645"/>
	<rect x="181.68" y="476.9" style="fill:#9B735A;" width="148.65" height="20.645"/>
	<rect x="181.68" y="130.06" style="fill:#9B735A;" width="148.65" height="20.645"/>
	<rect x="181.68" y="187.87" style="fill:#9B735A;" width="148.65" height="20.645"/>
	<rect x="181.68" y="419.1" style="fill:#9B735A;" width="148.65" height="20.645"/>
	<rect x="181.68" y="245.68" style="fill:#9B735A;" width="148.65" height="20.645"/>
	<rect x="181.68" y="303.48" style="fill:#9B735A;" width="148.65" height="20.645"/>
	<rect x="181.68" y="361.29" style="fill:#9B735A;" width="148.65" height="20.645"/>
</g>
<g>
	<rect x="305.55" y="72.26" style="fill:#8C5F50;" width="24.774" height="20.645"/>
	<rect x="305.55" y="14.452" style="fill:#8C5F50;" width="24.774" height="20.645"/>
	<rect x="305.55" y="476.9" style="fill:#8C5F50;" width="24.774" height="20.645"/>
	<rect x="305.55" y="130.06" style="fill:#8C5F50;" width="24.774" height="20.645"/>
	<rect x="305.55" y="187.87" style="fill:#8C5F50;" width="24.774" height="20.645"/>
	<rect x="305.55" y="419.1" style="fill:#8C5F50;" width="24.774" height="20.645"/>
	<rect x="305.55" y="245.68" style="fill:#8C5F50;" width="24.774" height="20.645"/>
	<rect x="305.55" y="303.48" style="fill:#8C5F50;" width="24.774" height="20.645"/>
	<rect x="305.55" y="361.29" style="fill:#8C5F50;" width="24.774" height="20.645"/>
</g>
<path style="fill:#AE8B70;" d="M181.677,512h-16.516c-4.561,0-8.258-3.697-8.258-8.258V8.258c0-4.561,3.697-8.258,8.258-8.258  h16.516c4.561,0,8.258,3.697,8.258,8.258v495.484C189.935,508.303,186.238,512,181.677,512z"/>
<path style="fill:#9B735A;" d="M173.419,503.742V8.258c0-4.561,3.697-8.258,8.258-8.258h-16.516c-4.561,0-8.258,3.697-8.258,8.258  v495.484c0,4.56,3.697,8.258,8.258,8.258h16.516C177.116,512,173.419,508.302,173.419,503.742z"/>
<path style="fill:#AE8B70;" d="M346.839,512h-16.516c-4.561,0-8.258-3.697-8.258-8.258V8.258c0-4.561,3.697-8.258,8.258-8.258  h16.516c4.561,0,8.258,3.697,8.258,8.258v495.484C355.097,508.303,351.4,512,346.839,512z"/>
<path style="fill:#9B735A;" d="M338.581,503.742V8.258c0-4.561,3.697-8.258,8.258-8.258h-16.516c-4.561,0-8.258,3.697-8.258,8.258  v495.484c0,4.56,3.697,8.258,8.258,8.258h16.516C342.278,512,338.581,508.302,338.581,503.742z"/>
<g>
</g>
<g>
</g>
<g>
</g>
<g>
</g>
<g>
</g>
<g>
</g>
<g>
</g>
<g>
</g>
<g>
</g>
<g>
</g>
<g>
</g>
<g>
</g>
<g>
</g>
<g>
</g>
<g>
</g>
</svg>
