<?xml version="1.0" encoding="iso-8859-1"?>
<!-- Generator: Adobe Illustrator 19.0.0, SVG Export Plug-In . SVG Version: 6.00 Build 0)  -->
<svg xmlns="http://www.w3.org/2000/svg" xmlns:xlink="http://www.w3.org/1999/xlink" version="1.1" id="Capa_1" x="0px" y="0px" viewBox="0 0 512 512" style="enable-background:new 0 0 512 512;" xml:space="preserve">
<circle style="fill:#FFDC64;" cx="392" cy="308" r="96"/>
<path style="fill:#FFC850;" d="M432,380c-53.02,0-96-42.981-96-96c0-26.493,10.733-50.477,28.085-67.847  C324.687,228.113,296,264.694,296,308c0,53.019,42.98,96,96,96c26.527,0,50.539-10.761,67.915-28.153  C451.078,378.529,441.713,380,432,380z"/>
<g>
	<path style="fill:#E1A546;" d="M393.836,339.535c-8.164,0-15.836-3.176-21.602-8.945c-5.695-5.699-8.313-14.195-6.836-22.172   c1.305-6.996,5.625-12.602,11.875-15.379c4.039-1.801,8.766,0.027,10.563,4.059c1.789,4.035-0.023,8.766-4.063,10.559   c-1.414,0.633-2.305,1.871-2.641,3.684c-0.516,2.785,0.453,5.973,2.414,7.938c5.5,5.484,15.063,5.5,20.57,0   c5.93-5.926,7.758-15.777,4.461-23.961c-1.648-4.098,0.336-8.762,4.43-10.414c4.102-1.648,8.758,0.324,10.414,4.43   c5.719,14.188,2.508,30.766-7.992,41.258C409.664,336.359,401.992,339.535,393.836,339.535z"/>
	<path style="fill:#E1A546;" d="M444.266,243.563c-22.387-22.387-53.499-31.266-83.256-26.353   c-18.371,6.271-34.189,17.941-45.641,33.139c2.851,2.07,6.762,2.203,9.639-0.11c32.688-26.223,79.086-24.223,107.945,4.637   c23.984,23.988,24.305,64.203,0.695,87.816c-8.852,8.855-21.547,14.066-34.836,14.301c-12.945,0.215-25.883-4.594-34.547-13.258   c-14.398-14.398-14.844-38.555-0.984-52.754c7.078-7.242,17.539-10.699,27.359-9.004c4.344,0.75,8.492-2.168,9.242-6.52   c0.75-4.355-2.164-8.492-6.523-9.246c-15.109-2.625-30.648,2.461-41.523,13.59c-19.852,20.328-19.344,54.789,1.117,75.246   C364.398,366.496,380.719,373,397.898,373c0.398,0,0.797-0.004,1.203-0.012c17.383-0.305,34.102-7.227,45.859-18.984   C474.703,324.262,474.391,273.684,444.266,243.563z"/>
</g>
<circle style="fill:#FFDC64;" cx="176" cy="252" r="152"/>
<g>
	<circle style="fill:#FFC850;" cx="176" cy="244.04" r="72.04"/>
	<path style="fill:#FFC850;" d="M188.154,379.516c-67-12.258-118.784-68.954-124.304-136.842   c-3.377-41.536,10.02-79.833,34.09-109.037c3.813-4.627-2.075-10.768-7.041-7.408c-43.926,29.712-71.5,81.709-66.264,139.85   c6.345,70.444,62.24,128.212,132.449,136.767c42.335,5.159,81.585-7.29,111.861-30.757   C244.409,381.354,217.012,384.796,188.154,379.516z"/>
</g>
<g>
	<path style="fill:#E1A546;" d="M178.898,297.27c-11.664,0-22.641-4.547-30.891-12.801c-7.953-7.949-11.609-19.813-9.539-30.957   c1.773-9.543,7.641-17.176,16.109-20.941c4.047-1.809,8.766,0.035,10.563,4.063c1.789,4.039-0.023,8.766-4.063,10.563   c-4.656,2.066-6.313,6.164-6.883,9.238c-1.102,5.945,0.906,12.508,5.125,16.723c10.477,10.473,28.703,10.457,39.164,0   c12.391-12.391,14.625-33.852,5.094-48.863c-2.375-3.73-1.266-8.672,2.461-11.043c3.727-2.363,8.672-1.266,11.039,2.465   c13.617,21.43,10.484,50.988-7.281,68.754C201.547,292.723,190.57,297.27,178.898,297.27z"/>
	<path style="fill:#E1A546;" d="M255.453,153.27c-27.523-27.527-68.133-42.594-111.969-41.25   c-13.719,0.413-26.987,2.633-39.63,6.179c-22.488,12.151-41.484,29.853-55.346,51.206c22.6-25.153,57.325-40.245,95.461-41.393   c39.227-1.16,75.75,12.148,100.172,36.57c39.766,39.773,40.273,106.473,1.102,145.645c-14.867,14.867-36.141,23.617-58.367,24.012   c-22.375,0.246-43.484-7.758-58.086-22.359c-24.563-24.563-25.289-65.816-1.594-90.086c14.273-14.605,35.633-20.055,54.352-13.875   c4.227,1.375,8.727-0.898,10.109-5.094s-0.898-8.719-5.094-10.102c-24.5-8.082-52.297-1.051-70.813,17.891   c-29.688,30.402-28.898,81.957,1.727,112.578c17.25,17.254,41.898,27.059,67.859,27.059c0.609,0,1.211-0.004,1.82-0.016   c26.336-0.465,51.633-10.922,69.398-28.695C301.859,276.234,301.359,199.176,255.453,153.27z"/>
</g>
<path style="fill:#B4E66E;" d="M504,412H8c-4.422,0-8-3.582-8-8s3.578-8,8-8h496c4.422,0,8,3.582,8,8S508.422,412,504,412z"/>
<g>
</g>
<g>
</g>
<g>
</g>
<g>
</g>
<g>
</g>
<g>
</g>
<g>
</g>
<g>
</g>
<g>
</g>
<g>
</g>
<g>
</g>
<g>
</g>
<g>
</g>
<g>
</g>
<g>
</g>
</svg>
