<?xml version="1.0" encoding="iso-8859-1"?>
<!-- Generator: Adobe Illustrator 19.0.0, SVG Export Plug-In . SVG Version: 6.00 Build 0)  -->
<svg xmlns="http://www.w3.org/2000/svg" xmlns:xlink="http://www.w3.org/1999/xlink" version="1.1" id="Capa_1" x="0px" y="0px" viewBox="0 0 512 512" style="enable-background:new 0 0 512 512;" xml:space="preserve">
<g>
	<path style="fill:#8C5F50;" d="M504,212H8c-4.422,0-8-3.582-8-8s3.578-8,8-8h496c4.422,0,8,3.582,8,8S508.422,212,504,212z"/>
	<path style="fill:#8C5F50;" d="M504,292H8c-4.422,0-8-3.582-8-8s3.578-8,8-8h496c4.422,0,8,3.582,8,8S508.422,292,504,292z"/>
	<path style="fill:#8C5F50;" d="M504,324H8c-4.422,0-8-3.582-8-8s3.578-8,8-8h496c4.422,0,8,3.582,8,8S508.422,324,504,324z"/>
</g>
<g>
	<path style="fill:#9B735A;" d="M402.141,276.293L285.886,244l116.255-32.293c4.258-1.18,6.75-5.59,5.57-9.848   c-1.188-4.266-5.586-6.746-9.852-5.566L256,235.698l-141.859-39.405c-4.258-1.18-8.664,1.301-9.852,5.566   c-1.18,4.258,1.313,8.668,5.57,9.848L226.114,244l-116.255,32.293c-4.258,1.18-6.75,5.59-5.57,9.848   c0.984,3.543,4.203,5.863,7.703,5.863c0.711,0,1.43-0.098,2.148-0.297L256,252.302l141.859,39.405   c0.719,0.199,1.438,0.297,2.148,0.297c3.5,0,6.719-2.32,7.703-5.863C408.891,281.883,406.398,277.473,402.141,276.293z"/>
	<path style="fill:#9B735A;" d="M413.856,211.707l88.004,24.446c5.097,1.416,10.14-2.417,10.14-7.707l0,0   c0-3.593-2.396-6.745-5.858-7.707l-88.005-24.446c-4.258-1.18-8.664,1.301-9.852,5.566   C407.106,206.117,409.598,210.527,413.856,211.707z"/>
	<path style="fill:#9B735A;" d="M512,259.554c0-5.29-5.043-9.123-10.14-7.707l-88.004,24.446c-4.258,1.18-6.75,5.59-5.57,9.848   c0.984,3.543,4.203,5.863,7.703,5.863c0.711,0,1.43-0.098,2.148-0.297l88.005-24.446C509.604,266.3,512,263.148,512,259.554   L512,259.554z"/>
	<path style="fill:#9B735A;" d="M98.131,211.707l-87.992,24.446C5.042,237.568,0,233.735,0,228.446l0,0   c0-3.593,2.396-6.745,5.857-7.707l87.993-24.446c4.257-1.18,8.663,1.301,9.85,5.566C104.88,206.117,102.388,210.527,98.131,211.707   z"/>
	<path style="fill:#9B735A;" d="M0,259.554c0-5.29,5.042-9.123,10.138-7.707l87.992,24.446c4.257,1.18,6.749,5.59,5.57,9.848   c-0.984,3.543-4.203,5.863-7.702,5.863c-0.711,0-1.429-0.098-2.148-0.297L5.857,267.262C2.396,266.3,0,263.148,0,259.554L0,259.554   z"/>
	<path style="fill:#9B735A;" d="M112,188H96c-4.418,0-8,3.582-8,8v152h32V196C120,191.582,116.418,188,112,188z"/>
</g>
<path style="fill:#8C5F50;" d="M112,188H96c-4.418,0-8,3.582-8,8v152h16V196C104,191.582,107.582,188,112,188z"/>
<circle style="fill:#AE8B70;" cx="104" cy="172" r="16"/>
<path style="fill:#9B735A;" d="M112,180c-8.836,0-16-7.164-16-16c0-2.345,0.532-4.555,1.438-6.562C91.883,159.947,88,165.508,88,172  c0,8.836,7.164,16,16,16c6.492,0,12.053-3.883,14.562-9.438C116.555,179.468,114.345,180,112,180z"/>
<path style="fill:#AE8B70;" d="M136,356H72c-4.422,0-8-3.582-8-8s3.578-8,8-8h64c4.422,0,8,3.582,8,8S140.422,356,136,356z"/>
<path style="fill:#9B735A;" d="M416,188h-16c-4.418,0-8,3.582-8,8v152h32V196C424,191.582,420.418,188,416,188z"/>
<path style="fill:#8C5F50;" d="M416,188h-16c-4.418,0-8,3.582-8,8v152h16V196C408,191.582,411.582,188,416,188z"/>
<circle style="fill:#AE8B70;" cx="408" cy="172" r="16"/>
<path style="fill:#9B735A;" d="M416,180c-8.836,0-16-7.164-16-16c0-2.345,0.532-4.555,1.438-6.562  C395.883,159.947,392,165.508,392,172c0,8.836,7.164,16,16,16c6.492,0,12.053-3.883,14.562-9.438  C420.555,179.468,418.345,180,416,180z"/>
<path style="fill:#AE8B70;" d="M440,356h-64c-4.422,0-8-3.582-8-8s3.578-8,8-8h64c4.422,0,8,3.582,8,8S444.422,356,440,356z"/>
<g>
</g>
<g>
</g>
<g>
</g>
<g>
</g>
<g>
</g>
<g>
</g>
<g>
</g>
<g>
</g>
<g>
</g>
<g>
</g>
<g>
</g>
<g>
</g>
<g>
</g>
<g>
</g>
<g>
</g>
</svg>
