<?xml version="1.0" encoding="iso-8859-1"?>
<!-- Generator: Adobe Illustrator 19.0.0, SVG Export Plug-In . SVG Version: 6.00 Build 0)  -->
<svg xmlns="http://www.w3.org/2000/svg" xmlns:xlink="http://www.w3.org/1999/xlink" version="1.1" id="Capa_1" x="0px" y="0px" viewBox="0 0 512 512" style="enable-background:new 0 0 512 512;" xml:space="preserve">
<path style="fill:#AFB9D2;" d="M504,204h-24c-8.82,0-16-7.176-16-16v-16H16c-4.422,0-8-3.582-8-8s3.578-8,8-8h448  c8.82,0,16,7.176,16,16v16h24c4.422,0,8,3.582,8,8S508.422,204,504,204z"/>
<g>
	<rect x="384" y="156" style="fill:#959CB5;" width="32" height="16"/>
	<rect x="104" y="156" style="fill:#959CB5;" width="32" height="16"/>
	<path style="fill:#959CB5;" d="M40,172H16c-4.418,0-8-3.582-8-8l0,0c0-4.418,3.582-8,8-8h24V172z"/>
</g>
<rect x="32" y="84" style="fill:#8C5F50;" width="32" height="400"/>
<path style="fill:#784B41;" d="M64,92H32v392h16V124c0-4.418,3.582-8,8-8h8V92z"/>
<rect x="400" y="84" style="fill:#8C5F50;" width="32" height="400"/>
<path style="fill:#784B41;" d="M432,92h-32v392h16V124c0-4.418,3.582-8,8-8h8V92z"/>
<path style="fill:#8C5F50;" d="M336,180H128c-4.418,0-8-3.582-8-8v-16c0-4.418,3.582-8,8-8h208c4.418,0,8,3.582,8,8v16  C344,176.418,340.418,180,336,180z"/>
<path style="fill:#9B735A;" d="M420.422,28.844c-2.71-5.42-8.25-8.844-14.31-8.844H57.888c-6.061,0-11.601,3.424-14.311,8.845  L13.788,88.422C11.129,93.742,14.997,100,20.944,100h422.112c5.947,0,9.815-6.258,7.155-11.578L420.422,28.844z"/>
<path style="fill:#8C5F50;" d="M66.722,88.422L68.933,84H448l-8-16H76.933l8-16H432l-8-16H92.933l3.578-7.155  c2.71-5.421,8.251-8.845,14.312-8.845H57.888c-6.061,0-11.601,3.424-14.312,8.845L13.788,88.422  C11.129,93.741,14.997,100,20.944,100h52.934C67.931,100,64.063,93.741,66.722,88.422z"/>
<path style="fill:#784B41;" d="M336,164H128c-4.418,0-8-3.582-8-8v16c0,4.418,3.582,8,8,8h208c4.418,0,8-3.582,8-8v-16  C344,160.418,340.418,164,336,164z"/>
<g>
	<path style="fill:#EBC9A0;" d="M264,348c-4.422,0-8-3.582-8-8V148c0-4.418,3.578-8,8-8s8,3.582,8,8v192   C272,344.418,268.422,348,264,348z"/>
	<path style="fill:#EBC9A0;" d="M232,188c-4.422,0-8-3.582-8-8v-32c0-4.418,3.578-8,8-8s8,3.582,8,8v32   C240,184.418,236.422,188,232,188z"/>
	<path style="fill:#EBC9A0;" d="M248,188c-4.422,0-8-3.582-8-8v-32c0-4.418,3.578-8,8-8s8,3.582,8,8v32   C256,184.418,252.422,188,248,188z"/>
	<path style="fill:#EBC9A0;" d="M200,188c-4.422,0-8-3.582-8-8v-32c0-4.418,3.578-8,8-8s8,3.582,8,8v32   C208,184.418,204.422,188,200,188z"/>
	<path style="fill:#EBC9A0;" d="M216,188c-4.422,0-8-3.582-8-8v-32c0-4.418,3.578-8,8-8s8,3.582,8,8v32   C224,184.418,220.422,188,216,188z"/>
</g>
<g>
	<path style="fill:#E1B18C;" d="M216,172c-4.422,0-8-3.582-8-8v16c0,4.418,3.578,8,8,8s8-3.582,8-8v-16   C224,168.418,220.422,172,216,172z"/>
	<path style="fill:#E1B18C;" d="M200,172c-4.422,0-8-3.582-8-8v16c0,4.418,3.578,8,8,8s8-3.582,8-8v-16   C208,168.418,204.422,172,200,172z"/>
	<path style="fill:#E1B18C;" d="M248,172c-4.422,0-8-3.582-8-8v16c0,4.418,3.578,8,8,8s8-3.582,8-8v-16   C256,168.418,252.422,172,248,172z"/>
	<path style="fill:#E1B18C;" d="M232,172c-4.422,0-8-3.582-8-8v16c0,4.418,3.578,8,8,8s8-3.582,8-8v-16   C240,168.418,236.422,172,232,172z"/>
</g>
<rect x="144" y="364" style="fill:#7F8499;" width="176" height="120"/>
<path style="fill:#707487;" d="M208,388h112v-24H144v120h48v-80C192,395.163,199.163,388,208,388z"/>
<path style="fill:#959CB5;" d="M320,340H144c-4.418,0-8,3.582-8,8v16c0,4.418,3.582,8,8,8h176c4.418,0,8-3.582,8-8v-16  C328,343.582,324.418,340,320,340z"/>
<path style="fill:#7F8499;" d="M192,364v-16c0-4.418,3.582-8,8-8h-56c-4.418,0-8,3.582-8,8v16c0,4.418,3.582,8,8,8h56  C195.582,372,192,368.418,192,364z"/>
<path style="fill:#AE8B70;" d="M456,492H8c-4.422,0-8-3.582-8-8s3.578-8,8-8h448c4.422,0,8,3.582,8,8S460.422,492,456,492z"/>
<g>
</g>
<g>
</g>
<g>
</g>
<g>
</g>
<g>
</g>
<g>
</g>
<g>
</g>
<g>
</g>
<g>
</g>
<g>
</g>
<g>
</g>
<g>
</g>
<g>
</g>
<g>
</g>
<g>
</g>
</svg>
