<?xml version="1.0" encoding="iso-8859-1"?>
<!-- Generator: Adobe Illustrator 19.0.0, SVG Export Plug-In . SVG Version: 6.00 Build 0)  -->
<svg xmlns="http://www.w3.org/2000/svg" xmlns:xlink="http://www.w3.org/1999/xlink" version="1.1" id="Capa_1" x="0px" y="0px" viewBox="0 0 512 512" style="enable-background:new 0 0 512 512;" xml:space="preserve">
<path style="fill:#7F8499;" d="M479.492,434.794v48.762c0,4.488,3.635,8.127,8.127,8.127s8.127-3.639,8.127-8.127v-48.762H479.492z"/>
<path style="fill:#959CB5;" d="M503.873,426.667h-56.889v16.254h56.889c4.492,0,8.127-3.639,8.127-8.127  S508.365,426.667,503.873,426.667z"/>
<path style="fill:#FAEBC8;" d="M487.619,117.841l-42.023-84.046c-4.13-8.26-12.572-13.477-21.807-13.477H63.83  c-9.235,0-17.677,5.218-21.807,13.477L0,117.841"/>
<g>
	<rect x="24.381" y="150.35" style="fill:#784B41;" width="16.254" height="154.41"/>
	<rect x="446.98" y="150.35" style="fill:#784B41;" width="16.254" height="154.41"/>
</g>
<path style="fill:#9B735A;" d="M48.762,442.921h398.222c8.977,0,16.254-7.277,16.254-16.254V321.016H24.381v97.524  C24.381,432.005,35.297,442.921,48.762,442.921z"/>
<g>
	<path style="fill:#AE8B70;" d="M73.143,345.397h390.095v81.27c0,8.977-7.277,16.254-16.254,16.254H56.889v-81.27   C56.889,352.674,64.166,345.397,73.143,345.397z"/>
	<path style="fill:#AE8B70;" d="M471.365,329.143H16.254c-4.488,0-8.127-3.639-8.127-8.127v-16.254c0-4.488,3.639-8.127,8.127-8.127   h455.111c4.488,0,8.127,3.639,8.127,8.127v16.254C479.492,325.504,475.853,329.143,471.365,329.143z"/>
</g>
<path style="fill:#F5DCB4;" d="M24.381,158.476L24.381,158.476C10.916,158.476,0,147.56,0,134.095v-16.254h48.762v16.254  C48.762,147.56,37.846,158.476,24.381,158.476z"/>
<path style="fill:#DC5F5A;" d="M73.143,158.476L73.143,158.476c-13.465,0-24.381-10.916-24.381-24.381v-16.254h48.762v16.254  C97.524,147.56,86.608,158.476,73.143,158.476z"/>
<path style="fill:#F5DCB4;" d="M121.905,158.476L121.905,158.476c-13.465,0-24.381-10.916-24.381-24.381v-16.254h48.762v16.254  C146.286,147.56,135.37,158.476,121.905,158.476z"/>
<path style="fill:#DC5F5A;" d="M170.667,158.476L170.667,158.476c-13.465,0-24.381-10.916-24.381-24.381v-16.254h48.762v16.254  C195.048,147.56,184.132,158.476,170.667,158.476z"/>
<path style="fill:#F5DCB4;" d="M219.429,158.476L219.429,158.476c-13.465,0-24.381-10.916-24.381-24.381v-16.254h48.762v16.254  C243.81,147.56,232.894,158.476,219.429,158.476z"/>
<path style="fill:#DC5F5A;" d="M268.19,158.476L268.19,158.476c-13.465,0-24.381-10.916-24.381-24.381v-16.254h48.762v16.254  C292.571,147.56,281.656,158.476,268.19,158.476z"/>
<path style="fill:#F5DCB4;" d="M316.952,158.476L316.952,158.476c-13.465,0-24.381-10.916-24.381-24.381v-16.254h48.762v16.254  C341.333,147.56,330.418,158.476,316.952,158.476z"/>
<path style="fill:#DC5F5A;" d="M365.714,158.476L365.714,158.476c-13.465,0-24.381-10.916-24.381-24.381v-16.254h48.762v16.254  C390.095,147.56,379.18,158.476,365.714,158.476z"/>
<path style="fill:#F5DCB4;" d="M414.476,158.476L414.476,158.476c-13.465,0-24.381-10.916-24.381-24.381v-16.254h48.762v16.254  C438.857,147.56,427.941,158.476,414.476,158.476z"/>
<path style="fill:#DC5F5A;" d="M463.238,158.476L463.238,158.476c-13.465,0-24.381-10.916-24.381-24.381v-16.254h48.762v16.254  C487.619,147.56,476.703,158.476,463.238,158.476z"/>
<g>
	<polygon style="fill:#FF6E64;" points="165.791,20.317 146.286,117.841 195.048,117.841 204.8,20.317  "/>
	<polygon style="fill:#FF6E64;" points="282.819,20.317 243.81,20.317 243.81,117.841 292.571,117.841  "/>
	<polygon style="fill:#FF6E64;" points="360.838,20.317 321.828,20.317 341.333,117.841 390.095,117.841  "/>
</g>
<circle style="fill:#5B5D6E;" cx="130.03" cy="442.92" r="48.762"/>
<circle style="fill:#959CB5;" cx="130.03" cy="442.92" r="24.381"/>
<g>
	<path style="fill:#FFDC64;" d="M146.286,296.635H81.27c-4.488,0-8.127-3.639-8.127-8.127v-16.254c0-4.488,3.639-8.127,8.127-8.127   h65.016c4.488,0,8.127,3.639,8.127,8.127v16.254C154.413,292.996,150.774,296.635,146.286,296.635z"/>
	<path style="fill:#FFDC64;" d="M130.032,264.127H97.524c-4.488,0-8.127-3.639-8.127-8.127v-16.254c0-4.488,3.639-8.127,8.127-8.127   h32.508c4.488,0,8.127,3.639,8.127,8.127V256C138.159,260.488,134.52,264.127,130.032,264.127z"/>
</g>
<path style="fill:#B4E66E;" d="M243.81,296.635h-16.254c-4.488,0-8.127-3.639-8.127-8.127v-16.254c0-4.488,3.639-8.127,8.127-8.127  h16.254c4.488,0,8.127,3.639,8.127,8.127v16.254C251.937,292.996,248.298,296.635,243.81,296.635z"/>
<path style="fill:#A0D755;" d="M211.302,296.635h-16.254c-4.488,0-8.127-3.639-8.127-8.127v-16.254c0-4.488,3.639-8.127,8.127-8.127  h16.254c4.488,0,8.127,3.639,8.127,8.127v16.254C219.429,292.996,215.79,296.635,211.302,296.635z"/>
<path style="fill:#B4E66E;" d="M211.302,264.127h-16.254c-4.488,0-8.127-3.639-8.127-8.127v-16.254c0-4.488,3.639-8.127,8.127-8.127  h16.254c4.488,0,8.127,3.639,8.127,8.127V256C219.429,260.488,215.79,264.127,211.302,264.127z"/>
<circle style="fill:#7F8499;" cx="130.03" cy="442.92" r="8.127"/>
<g>
	<path style="fill:#FFC850;" d="M97.524,288.508v-16.254c0-4.489,3.638-8.127,8.127-8.127H81.27c-4.489,0-8.127,3.638-8.127,8.127   v16.254c0,4.488,3.638,8.127,8.127,8.127h24.381C101.162,296.635,97.524,292.996,97.524,288.508z"/>
	<path style="fill:#FFC850;" d="M113.778,256v-16.254c0-4.489,3.638-8.127,8.127-8.127H97.524c-4.489,0-8.127,3.638-8.127,8.127V256   c0,4.488,3.638,8.127,8.127,8.127h24.381C117.416,264.127,113.778,260.488,113.778,256z"/>
</g>
<g>
	<path style="fill:#A0D755;" d="M203.175,256v-16.254c0-4.489,3.638-8.127,8.127-8.127h-16.254c-4.489,0-8.127,3.638-8.127,8.127   V256c0,4.488,3.638,8.127,8.127,8.127h16.254C206.813,264.127,203.175,260.488,203.175,256z"/>
	<path style="fill:#A0D755;" d="M235.683,288.508v-16.254c0-4.489,3.638-8.127,8.127-8.127h-16.254   c-4.489,0-8.127,3.638-8.127,8.127v16.254c0,4.488,3.638,8.127,8.127,8.127h16.254   C239.321,296.635,235.683,292.996,235.683,288.508z"/>
</g>
<path style="fill:#8CC346;" d="M203.175,288.508v-16.254c0-4.489,3.638-8.127,8.127-8.127h-16.254c-4.489,0-8.127,3.638-8.127,8.127  v16.254c0,4.488,3.638,8.127,8.127,8.127h16.254C206.813,296.635,203.175,292.996,203.175,288.508z"/>
<circle style="fill:#FF6E64;" cx="300.7" cy="280.38" r="16.254"/>
<path style="fill:#DC5F5A;" d="M308.825,288.508c-8.977,0-16.254-7.277-16.254-16.254c0-2.382,0.541-4.627,1.461-6.666  c-5.644,2.549-9.588,8.197-9.588,14.793c0,8.977,7.277,16.254,16.254,16.254c6.595,0,12.244-3.944,14.793-9.588  C313.453,287.967,311.207,288.508,308.825,288.508z"/>
<circle style="fill:#FF6E64;" cx="333.21" cy="280.38" r="16.254"/>
<path style="fill:#DC5F5A;" d="M341.333,288.508c-8.977,0-16.254-7.277-16.254-16.254c0-2.382,0.541-4.627,1.461-6.666  c-5.644,2.549-9.588,8.197-9.588,14.793c0,8.977,7.277,16.254,16.254,16.254c6.595,0,12.244-3.944,14.793-9.588  C345.961,287.967,343.715,288.508,341.333,288.508z"/>
<circle style="fill:#FF6E64;" cx="365.71" cy="280.38" r="16.254"/>
<path style="fill:#DC5F5A;" d="M373.841,288.508c-8.977,0-16.254-7.277-16.254-16.254c0-2.382,0.541-4.627,1.461-6.666  c-5.644,2.549-9.588,8.197-9.588,14.793c0,8.977,7.277,16.254,16.254,16.254c6.595,0,12.244-3.944,14.793-9.588  C378.469,287.967,376.223,288.508,373.841,288.508z"/>
<circle style="fill:#FF6E64;" cx="398.22" cy="280.38" r="16.254"/>
<path style="fill:#DC5F5A;" d="M406.349,288.508c-8.977,0-16.254-7.277-16.254-16.254c0-2.382,0.541-4.627,1.461-6.666  c-5.644,2.549-9.588,8.197-9.588,14.793c0,8.977,7.277,16.254,16.254,16.254c6.595,0,12.244-3.944,14.793-9.588  C410.977,287.967,408.731,288.508,406.349,288.508z"/>
<circle style="fill:#FFC850;" cx="316.95" cy="252.25" r="16.254"/>
<path style="fill:#FFAF41;" d="M325.079,260.38c-8.977,0-16.254-7.277-16.254-16.254c0-2.382,0.541-4.627,1.461-6.666  c-5.644,2.549-9.588,8.197-9.588,14.793c0,8.977,7.277,16.254,16.254,16.254c6.595,0,12.244-3.944,14.793-9.588  C329.707,259.84,327.461,260.38,325.079,260.38z"/>
<circle style="fill:#FFC850;" cx="349.46" cy="252.25" r="16.254"/>
<path style="fill:#FFAF41;" d="M357.587,260.38c-8.977,0-16.254-7.277-16.254-16.254c0-2.382,0.541-4.627,1.461-6.666  c-5.644,2.549-9.588,8.197-9.588,14.793c0,8.977,7.277,16.254,16.254,16.254c6.595,0,12.244-3.944,14.793-9.588  C362.215,259.84,359.969,260.38,357.587,260.38z"/>
<circle style="fill:#FFC850;" cx="381.97" cy="252.25" r="16.254"/>
<path style="fill:#FFAF41;" d="M390.095,260.38c-8.977,0-16.254-7.277-16.254-16.254c0-2.382,0.541-4.627,1.461-6.666  c-5.644,2.549-9.588,8.197-9.588,14.793c0,8.977,7.277,16.254,16.254,16.254c6.595,0,12.244-3.944,14.793-9.588  C394.723,259.84,392.477,260.38,390.095,260.38z"/>
<g>
	<polygon style="fill:#FF6E64;" points="87.771,20.317 48.762,117.841 97.524,117.841 126.781,20.317  "/>
	<path style="fill:#FF6E64;" d="M423.789,20.317h-23.941l39.009,97.524h48.762l-42.023-84.047   C441.466,25.535,433.024,20.317,423.789,20.317z"/>
</g>
<g>
</g>
<g>
</g>
<g>
</g>
<g>
</g>
<g>
</g>
<g>
</g>
<g>
</g>
<g>
</g>
<g>
</g>
<g>
</g>
<g>
</g>
<g>
</g>
<g>
</g>
<g>
</g>
<g>
</g>
</svg>
