<?xml version="1.0" encoding="iso-8859-1"?>
<!-- Generator: Adobe Illustrator 19.0.0, SVG Export Plug-In . SVG Version: 6.00 Build 0)  -->
<svg xmlns="http://www.w3.org/2000/svg" xmlns:xlink="http://www.w3.org/1999/xlink" version="1.1" id="Capa_1" x="0px" y="0px" viewBox="0 0 512 512" style="enable-background:new 0 0 512 512;" xml:space="preserve">
<rect x="182.86" y="373.84" style="fill:#707487;" width="97.52" height="16.254"/>
<g>
	<rect x="223.49" y="211.3" style="fill:#7F8499;" width="16.254" height="292.57"/>
	<polygon style="fill:#7F8499;" points="205.066,211.302 150.492,502.377 166.46,505.369 221.601,211.302  "/>
	<polygon style="fill:#7F8499;" points="258.172,211.302 241.637,211.302 296.778,505.369 312.746,502.377  "/>
	<rect x="239.75" y="105.65" style="fill:#7F8499;" width="40.635" height="16.254"/>
</g>
<path style="fill:#AFB9D2;" d="M272.254,97.524v32.508l112.184,22.437c5.029,1.006,9.721-2.841,9.721-7.969V83.056  c0-5.129-4.692-8.975-9.721-7.969L272.254,97.524z"/>
<path style="fill:#959CB5;" d="M272.254,130.032l76.972,15.394c2.716-10.109,4.298-20.682,4.298-31.648s-1.581-21.54-4.298-31.648  l-76.972,15.394L272.254,130.032L272.254,130.032z"/>
<path style="fill:#C7CFE2;" d="M231.619,219.429c-58.254,0-105.651-47.393-105.651-105.651S173.365,8.127,231.619,8.127  S337.27,55.52,337.27,113.778S289.873,219.429,231.619,219.429z M231.619,24.381c-49.294,0-89.397,40.103-89.397,89.397  s40.103,89.397,89.397,89.397s89.397-40.103,89.397-89.397S280.913,24.381,231.619,24.381z"/>
<path style="fill:#959CB5;" d="M337.27,512H125.968c-4.492,0-8.127-3.639-8.127-8.127s3.635-8.127,8.127-8.127H337.27  c4.492,0,8.127,3.639,8.127,8.127S341.762,512,337.27,512z"/>
<path style="fill:#C7CFE2;" d="M212.679,225.882c6.157,1.074,12.474,1.673,18.94,1.673s12.783-0.599,18.94-1.673  c4.69-0.818,7.732-5.415,6.577-10.034l-13.702-54.811h-23.63l-13.702,54.811C204.947,220.467,207.989,225.064,212.679,225.882z"/>
<path style="fill:#AFB9D2;" d="M257.136,215.848l-13.702-54.811h-11.815v66.518c6.466,0,12.783-0.599,18.94-1.673  C255.249,225.064,258.291,220.467,257.136,215.848z"/>
<path style="fill:#C7CFE2;" d="M250.559,1.673C244.402,0.599,238.085,0,231.619,0s-12.783,0.599-18.94,1.673  c-4.69,0.818-7.732,5.415-6.577,10.034l13.702,54.811h23.63l13.702-54.811C258.291,7.088,255.249,2.492,250.559,1.673z"/>
<path style="fill:#AFB9D2;" d="M206.102,11.707l13.702,54.811h11.815V0c-6.466,0-12.783,0.599-18.94,1.673  C207.989,2.492,204.947,7.088,206.102,11.707z"/>
<path style="fill:#C7CFE2;" d="M144.004,41.323c-4.009,4.795-7.686,9.966-10.919,15.566s-5.873,11.37-8.021,17.239  c-1.636,4.471,0.824,9.404,5.401,10.713l54.318,15.539l11.815-20.464l-40.616-39.272C152.559,37.334,147.057,37.671,144.004,41.323z  "/>
<path style="fill:#AFB9D2;" d="M130.465,84.841l54.318,15.539l5.907-10.232l-57.606-33.259c-3.233,5.6-5.873,11.37-8.021,17.239  C123.427,78.599,125.887,83.532,130.465,84.841z"/>
<path style="fill:#C7CFE2;" d="M319.235,186.233c4.009-4.795,7.686-9.966,10.919-15.566c3.233-5.6,5.873-11.37,8.021-17.239  c1.636-4.471-0.824-9.404-5.401-10.713l-54.318-15.539L266.64,147.64l40.616,39.272  C310.679,190.221,316.181,189.885,319.235,186.233z"/>
<g>
	<path style="fill:#AFB9D2;" d="M332.773,142.714l-54.318-15.539l-5.908,10.232l57.606,33.259c3.233-5.6,5.873-11.37,8.021-17.239   C339.811,148.957,337.351,144.024,332.773,142.714z"/>
	<path style="fill:#AFB9D2;" d="M319.235,41.323c4.009,4.795,7.686,9.966,10.919,15.566s5.873,11.37,8.021,17.239   c1.636,4.471-0.824,9.404-5.401,10.713l-54.318,15.539L266.64,79.916l40.616-39.272C310.679,37.334,316.181,37.671,319.235,41.323z   "/>
</g>
<path style="fill:#C7CFE2;" d="M332.773,84.841l-54.318,15.539l-5.908-10.232l57.606-33.259c3.233,5.6,5.873,11.37,8.021,17.239  C339.811,78.599,337.351,83.532,332.773,84.841z"/>
<path style="fill:#AFB9D2;" d="M144.004,186.233c-4.009-4.795-7.686-9.966-10.919-15.566c-3.233-5.6-5.873-11.37-8.021-17.239  c-1.636-4.471,0.824-9.404,5.401-10.713l54.318-15.539l11.815,20.464l-40.616,39.272  C152.559,190.221,147.057,189.885,144.004,186.233z"/>
<path style="fill:#C7CFE2;" d="M130.465,142.714l54.318-15.539l5.907,10.232l-57.606,33.259c-3.233-5.6-5.873-11.37-8.021-17.239  C123.427,148.957,125.887,144.024,130.465,142.714z"/>
<path style="fill:#AFB9D2;" d="M231.619,170.667c-31.365,0-56.889-25.52-56.889-56.889s25.524-56.889,56.889-56.889  s56.889,25.52,56.889,56.889S262.984,170.667,231.619,170.667z M231.619,73.143c-22.405,0-40.635,18.23-40.635,40.635  s18.23,40.635,40.635,40.635s40.635-18.23,40.635-40.635S254.024,73.143,231.619,73.143z"/>
<circle style="fill:#959CB5;" cx="231.62" cy="113.78" r="16.254"/>
<path style="fill:#AFB9D2;" d="M280.381,284.444h-97.524c-4.488,0-8.127-3.639-8.127-8.127l0,0c0-4.488,3.639-8.127,8.127-8.127  h97.524c4.488,0,8.127,3.639,8.127,8.127l0,0C288.508,280.806,284.869,284.444,280.381,284.444z"/>
<g>
	<rect x="223.49" y="284.44" style="fill:#707487;" width="16.254" height="16.254"/>
	<polygon style="fill:#707487;" points="188.305,300.698 204.838,300.698 207.886,284.444 191.352,284.444  "/>
	<polygon style="fill:#707487;" points="271.886,284.444 255.352,284.444 258.4,300.698 274.933,300.698  "/>
</g>
<g>
</g>
<g>
</g>
<g>
</g>
<g>
</g>
<g>
</g>
<g>
</g>
<g>
</g>
<g>
</g>
<g>
</g>
<g>
</g>
<g>
</g>
<g>
</g>
<g>
</g>
<g>
</g>
<g>
</g>
</svg>
