<?xml version="1.0" encoding="iso-8859-1"?>
<!-- Generator: Adobe Illustrator 19.0.0, SVG Export Plug-In . SVG Version: 6.00 Build 0)  -->
<svg xmlns="http://www.w3.org/2000/svg" xmlns:xlink="http://www.w3.org/1999/xlink" version="1.1" id="Capa_1" x="0px" y="0px" viewBox="0 0 512 512" style="enable-background:new 0 0 512 512;" xml:space="preserve">
<path style="fill:#FFDC64;" d="M395.54,352.062l-40.443-13.481H156.904l-40.443,13.481c-20.233,6.744-33.88,25.679-33.88,47.006  v96.416c0,9.122,7.395,16.516,16.516,16.516h313.806c9.122,0,16.516-7.395,16.516-16.516v-96.417  C429.419,377.74,415.772,358.806,395.54,352.062z"/>
<rect x="198.19" y="256" style="fill:#F5AF73;" width="115.61" height="99.1"/>
<path style="fill:#F5965F;" d="M198.194,296.729c16.745,10.78,36.589,17.077,57.806,17.077s41.061-6.297,57.806-17.077V256H198.194  V296.729z"/>
<rect x="330.32" y="132.13" style="fill:#9B735A;" width="33.03" height="41.29"/>
<path style="fill:#F5C882;" d="M355.097,165.161h-8.258c-9.122,0-16.516-7.395-16.516-16.516v-16.516H181.677v16.516  c0,9.122-7.395,16.516-16.516,16.516h-8.258c-9.122,0-16.516,7.395-16.516,16.516v15.451c0,8.062,5.3,15.617,13.198,17.24  c4.415,0.907,8.509-0.06,11.87-2.108c3.01,47.449,42.337,85.03,90.545,85.03s87.536-37.582,90.545-85.03  c3.361,2.048,7.455,3.015,11.87,2.108c7.897-1.623,13.198-9.177,13.198-17.24v-15.451  C371.613,172.556,364.218,165.161,355.097,165.161z"/>
<rect x="148.65" y="132.13" style="fill:#9B735A;" width="33.03" height="41.29"/>
<path style="fill:#F5AF73;" d="M181.677,132.129v16.516c0,9.122-7.395,16.516-16.516,16.516h-8.258  c-9.122,0-16.516,7.395-16.516,16.516v15.451c0,8.062,5.3,15.617,13.198,17.24c4.415,0.907,8.509-0.06,11.87-2.108  c3.01,47.449,42.337,85.03,90.545,85.03c5.676,0,11.215-0.563,16.6-1.559c-42.313-7.743-74.406-44.73-74.406-89.279v-49.548  c0-4.561,3.697-8.258,8.258-8.258h123.871V132.13H181.677V132.129z"/>
<path style="fill:#FFDC64;" d="M355.097,99.097l-20.083-80.331C332.257,7.737,322.348,0,310.979,0H194.406  c-12.111,0-22.446,8.756-24.437,20.701l-13.066,78.395l-56.543,25.13c-4.075,1.811-2.783,7.902,1.677,7.902h307.925  c4.46,0,5.752-6.091,1.677-7.902L355.097,99.097z"/>
<g>
	<path style="fill:#784B41;" d="M214.711,189.935c-4.565,0-8.258-3.698-8.258-8.258v-8.258c0-4.56,3.694-8.258,8.258-8.258   c4.565,0,8.258,3.698,8.258,8.258v8.258C222.969,186.238,219.275,189.935,214.711,189.935z"/>
	<path style="fill:#784B41;" d="M297.29,189.935c-4.565,0-8.258-3.698-8.258-8.258v-8.258c0-4.56,3.694-8.258,8.258-8.258   s8.258,3.698,8.258,8.258v8.258C305.548,186.238,301.855,189.935,297.29,189.935z"/>
</g>
<path style="fill:#FFFFFF;" d="M227.44,222.968c-6.435,0-10.348,7.007-7.099,12.561C227.504,247.774,240.789,256,256,256  s28.497-8.226,35.659-20.471c3.249-5.554-0.664-12.561-7.099-12.561L227.44,222.968L227.44,222.968z"/>
<path style="fill:#FFC850;" d="M102.037,132.129h307.925c4.46,0,5.752-6.091,1.677-7.902l-56.543-25.13H156.904l-56.543,25.13  C96.285,126.038,97.578,132.129,102.037,132.129z"/>
<polygon style="fill:#9B735A;" points="162.409,66.065 156.904,99.097 355.097,99.097 346.839,66.065 "/>
<path style="fill:#8C5F50;" d="M215.577,82.581c-4.886,0-8.703-4.218-8.217-9.08l0.743-7.436h-45.694l-5.506,33.032h198.194  l-4.129-16.516H215.577z"/>
<path style="fill:#FFC850;" d="M208.103,66.065l5.119-51.192C214.068,6.429,221.172,0,229.658,0h-35.251  c-12.11,0-22.446,8.756-24.437,20.701l-7.56,45.363h45.694V66.065z"/>
<path style="fill:#E1A546;" d="M313.806,115.613c4.561,0,8.258-3.698,8.258-8.258c0-4.561-3.697-8.258-8.258-8.258H156.904  l-37.161,16.516C119.743,115.613,313.806,115.613,313.806,115.613z"/>
<g>
	<path style="fill:#FFC850;" d="M140.387,344.086l-23.926,7.975c-20.233,6.744-33.88,25.678-33.88,47.006v96.416   c0,9.121,7.395,16.516,16.516,16.516h41.29V344.086z"/>
	<path style="fill:#FFC850;" d="M371.613,344.086l23.926,7.975c20.233,6.744,33.88,25.678,33.88,47.006v96.416   c0,9.121-7.395,16.516-16.516,16.516h-41.29V344.086z"/>
</g>
<g>
	<polygon style="fill:#A0D755;" points="173.419,338.581 156.904,338.581 140.387,344.086 140.387,462.452 173.419,462.452  "/>
	<polygon style="fill:#A0D755;" points="338.581,338.581 355.097,338.581 371.613,344.086 371.613,462.452 338.581,462.452  "/>
</g>
<line style="fill:none;stroke:#464646;stroke-width:16;stroke-linecap:round;stroke-linejoin:round;stroke-miterlimit:10;" x1="173.421" y1="478.97" x2="173.5" y2="478.97"/>
<g>
	<path style="fill:#E1A546;" d="M140.387,512h-16.516v-74.323c0-4.561,3.697-8.258,8.258-8.258l0,0c4.561,0,8.258,3.697,8.258,8.258   V512z"/>
	<path style="fill:#E1A546;" d="M388.129,512h-16.516v-74.323c0-4.561,3.697-8.258,8.258-8.258l0,0c4.561,0,8.258,3.697,8.258,8.258   V512z"/>
</g>
<g>
	<polygon style="fill:#8CC355;" points="156.904,338.581 140.387,344.086 140.387,462.452 156.904,462.452  "/>
	<rect x="338.58" y="338.58" style="fill:#8CC355;" width="16.516" height="123.87"/>
</g>
<path style="fill:#B4E66E;" d="M371.613,512H140.387v-49.548c0-9.122,7.395-16.516,16.516-16.516h198.194  c9.122,0,16.516,7.395,16.516,16.516L371.613,512L371.613,512z"/>
<path style="fill:#FFC850;" d="M260.129,421.161h-8.258c-4.561,0-8.258-3.697-8.258-8.258v-66.065h24.774v66.065  C268.387,417.464,264.69,421.161,260.129,421.161z"/>
<g>
	<path style="fill:#FFF082;" d="M194.27,312.544L256,346.839l-29.712,35.655c-6.217,7.461-17.499,7.973-24.367,1.105l-45.018-45.018   l16.132-21.509C177.987,310.469,187.055,308.535,194.27,312.544z"/>
	<path style="fill:#FFF082;" d="M317.731,312.544L256,346.839l29.712,35.655c6.217,7.461,17.499,7.973,24.367,1.105l45.018-45.018   l-16.132-21.509C334.013,310.469,324.947,308.535,317.731,312.544z"/>
	<circle style="fill:#FFF082;" cx="173.421" cy="478.97" r="12.387"/>
	<circle style="fill:#FFF082;" cx="338.58" cy="478.97" r="12.387"/>
</g>
<g>
</g>
<g>
</g>
<g>
</g>
<g>
</g>
<g>
</g>
<g>
</g>
<g>
</g>
<g>
</g>
<g>
</g>
<g>
</g>
<g>
</g>
<g>
</g>
<g>
</g>
<g>
</g>
<g>
</g>
</svg>
